<?xml version="1.0" standalone="no"?>
<!DOCTYPE svg PUBLIC "-//W3C//DTD SVG 1.1//EN" "http://www.w3.org/Graphics/SVG/1.1/DTD/svg11.dtd" >
<svg xmlns="http://www.w3.org/2000/svg" xmlns:xlink="http://www.w3.org/1999/xlink" version="1.1">
<metadata>
Created by FontForge 20200314 at Sat Oct 14 23:33:29 2017
 By www-data
Copyright (c) 2016 by deveplex.com All rights reserved.
</metadata>
<defs>
<font id="CYSICONS-" horiz-adv-x="1200" >
  <font-face 
    font-family="CYSICONS"
    font-weight="400"
    font-stretch="normal"
    units-per-em="1200"
    panose-1="0 0 5 0 0 0 0 0 0 0"
    ascent="960"
    descent="-240"
    bbox="-81 -181 1364 1181"
    underline-thickness="50"
    underline-position="-100"
    unicode-range="U+001D-E203"
  />
<missing-glyph horiz-adv-x="440" 
d="M40 0v800h320v-800h-320zM80 40h240v720h-240v-720z" />
    <glyph glyph-name=".notdef" horiz-adv-x="440" 
d="M40 0v800h320v-800h-320zM80 40h240v720h-240v-720z" />
    <glyph glyph-name=".null" 
 />
    <glyph glyph-name=".null" 
 />
    <glyph glyph-name="nonmarkingreturn" 
 />
    <glyph glyph-name="space" unicode=" " 
 />
    <glyph glyph-name="dollar" unicode="$" 
d="M300 337h113q4 -62 39.5 -102.5t95.5 -52.5v272q-5 1 -12.5 3.5t-9.5 2.5q-37 11 -64 21t-58.5 29.5t-51 42.5t-32.5 58.5t-13 80.5q0 75 35.5 130t88.5 82t117 33v63h81v-64q31 -3 59 -11t61.5 -26t58 -43.5t42 -68t19.5 -96.5h-129q-7 59 -29 89.5t-82 40.5v-249
l52 -11q28 -6 52.5 -14t57 -25.5t54.5 -42t38.5 -65.5t16.5 -91q0 -113 -72.5 -182.5t-198.5 -77.5v-63h-81v63q-124 14 -193 85q-32 32 -42.5 75.5t-12.5 113.5zM439 708q0 -24 6.5 -42t13.5 -27.5t24 -18t25 -11t31 -8.5q6 -1 9 -2v222q-50 -6 -79.5 -30t-29.5 -83z
M629 178q138 15 138 123q0 52 -35.5 80.5t-102.5 49.5v-253z" />
    <glyph glyph-name="asterisk" unicode="*" 
d="M100 400v200h259l-183 183l141 141l183 -183v259h200v-259l183 183l141 -141l-183 -183h259v-200h-259l183 -183l-141 -141l-183 183v-259h-200v259l-183 -183l-141 141l183 183h-259z" />
    <glyph glyph-name="plus" unicode="+" 
d="M1100 458h-459v-458h-82v458h-459v83h459v459h82v-459h459v-83z" />
    <glyph glyph-name="uni00A0" unicode="&#xa0;" 
 />
    <glyph glyph-name="sterling" unicode="&#xa3;" 
d="M228 455v91h152q-22 45 -41 95q-9 24 -13 51t-2.5 66t23 82t62.5 80q88 80 240 80q118 0 210 -81.5t92 -189.5h-140q0 47 -31 81.5t-67.5 47t-69.5 12.5t-71.5 -13t-56.5 -32q-38 -41 -38 -93q0 -25 15 -63t25.5 -57t38.5 -66h220v-91h-180q7 -46 -2.5 -105.5
t-28.5 -85.5q-38 -54 -90 -103q31 10 76 16.5t64 6.5q30 0 94 -15.5t94 -15.5q70 0 124 28l46 -134q-37 -23 -73.5 -33.5t-54 -12t-56.5 -1.5q-21 0 -116.5 30t-141.5 27q-35 -4 -74.5 -16t-60.5 -23l-22 -10l-50 133q5 3 15 9.5t14.5 9.5t12 8.5t13 10.5t13.5 13t16 17
q44 50 49.5 115.5t-27.5 130.5h-202z" />
    <glyph glyph-name="yen" unicode="&#xa5;" horiz-adv-x="0" 
 />
    <glyph glyph-name="copyright" unicode="&#xa9;" 
d="M600 1000q126 0 246 -64.5t187 -184.5t67 -250q0 -131 -66.5 -250.5t-185.5 -185t-248 -65.5q-130 0 -248.5 65.5t-185 185t-66.5 250.5q0 130 67.5 250t187 184.5t245.5 64.5zM600 957q-115 0 -224 -59t-170.5 -168.5t-61.5 -228.5t60 -228t169 -169.5t227 -60.5
t227 60.5t169.5 169.5t60.5 228t-61.5 228.5t-170.5 168.5t-225 59zM847 822l15 -198h-28q-26 84 -80.5 125.5t-132.5 41.5q-59 0 -104 -24.5t-73 -63.5q-22 -31 -36 -81.5t-14 -104.5q0 -150 64.5 -221t169.5 -71q136 0 219 115l26 -14q-98 -143 -269 -143
q-142 0 -234.5 91.5t-92.5 221.5q0 135 98.5 230.5t252.5 95.5q33 0 53.5 -4t77.5 -23q17 -6 25 -6q11 0 19 6.5t17 26.5h27z" />
    <glyph glyph-name="registered" unicode="&#xae;" 
d="M598 1000q128 0 247.5 -64t187 -185t67.5 -250q0 -131 -66.5 -250t-185 -185t-250.5 -66q-129 0 -247.5 66t-184.5 185t-66 250q0 129 67 250t187 185t244 64zM598 958q-113 0 -223 -59.5t-171 -169t-61 -228.5t60.5 -228t169.5 -169t225 -60q119 0 228.5 60t169.5 169
t60 228t-61 228.5t-170.5 169t-226.5 59.5zM323 808h272q102 0 155.5 -46t53.5 -112q0 -53 -36 -94t-120 -63l147 -209q27 -39 48 -52q14 -8 38 -11v-24h-130l-207 285h-54v-217q4 -23 20 -33.5t64 -10.5v-24h-259v24q33 0 47.5 8t20.5 24q5 11 5 65v369q0 53 -3 62
q-4 16 -17.5 25t-44.5 9v25zM490 513q84 0 122 16.5t58.5 46.5t20.5 67q0 56 -40 95t-101 39q-28 0 -60 -10v-254z" />
    <glyph glyph-name="multiply" unicode="&#xd7;" 
d="M535 499l-435 436l64 65l436 -436l434 436l66 -66l-436 -435l434 -434l-64 -64l-434 434l-435 -435l-65 65z" />
    <glyph glyph-name="Euro" unicode="&#x20ac;" 
 />
    <glyph glyph-name="trademark" unicode="&#x2122;" horiz-adv-x="0" 
 />
    <glyph glyph-name="minus" unicode="&#x2212;" 
d="M1100 450h-1000v100h1000v-100z" />
    <glyph glyph-name="uni2299" unicode="&#x2299;" 
d="M438 500q0 67 47.5 114.5t114.5 47.5t114.5 -47.5t47.5 -114.5t-47.5 -114.5t-114.5 -47.5t-114.5 47.5t-47.5 114.5zM600 0q-207 0 -353.5 146.5t-146.5 353.5q0 208 146.5 354t353.5 146q208 0 354 -146t146 -354q0 -207 -146 -353.5t-354 -146.5zM875 225
q114 114 114 275t-114 275t-275 114t-275 -114t-114 -275t114 -275t275 -114t275 114z" />
    <glyph glyph-name="circle" unicode="&#x25cb;" 
d="M600 0q-207 0 -353.5 146.5t-146.5 353.5q0 208 146.5 354t353.5 146q208 0 354 -146t146 -354q0 -207 -146 -353.5t-354 -146.5zM875 225q114 114 114 275t-114 275t-275 114t-275 -114t-114 -275t114 -275t275 -114t275 114z" />
    <glyph glyph-name="uni25FC" unicode="&#x25fc;" 
 />
    <glyph glyph-name="uni2601" unicode="&#x2601;" 
d="M100 337q0 -65 46 -111t110 -46h609q97 0 166 70t69 168.5t-69 168t-166 69.5q-38 0 -73 -11q-36 78 -109.5 126.5t-162.5 48.5q-124 0 -211.5 -87t-87.5 -212q0 -20 2 -30q-54 -11 -88.5 -54.5t-34.5 -99.5z" />
    <glyph glyph-name="uni2605" unicode="&#x2605;" 
d="M48 645h425l129 355h2l130 -355h419l-339 -247l129 -398l-342 244l-339 -244l130 396z" />
    <glyph glyph-name="uni2606" unicode="&#x2606;" 
d="M392 396l-130 -396l339 244l342 -244l-129 398l339 247h-419l-130 355h-2l-129 -355h-425zM140 621h354l108 296h1l108 -296h349l-282 -206l107 -332l-284 203l-283 -203l109 331z" />
    <glyph glyph-name="uni2609" unicode="&#x2609;" horiz-adv-x="0" 
 />
    <glyph glyph-name="uni2661" unicode="&#x2661;" 
d="M71.5 603.5q16.5 -42.5 58.5 -93.5t73.5 -85t100.5 -99q62 -62 96 -95t88.5 -94t96.5 -116l14 -21l16 21q93 124 281 305q69 65 100.5 99t73.5 85t59 93.5t17 86.5q0 123 -93 216.5t-217 93.5q-137 0 -235 -122q-95 122 -231 122q-126 0 -220.5 -93.5t-94.5 -216.5
q0 -44 16.5 -86.5zM123 662q0 102 82.5 178.5t192.5 76.5q120 0 202 -100q86 100 206 100q109 0 190 -76.5t81 -178.5q0 -35 -14.5 -69.5t-51 -76.5t-64.5 -69t-88 -82q-164 -147 -245 -249l-14 -17l-14 17q-36 44 -83.5 94t-77 77.5t-84.5 77.5q-60 55 -88 82t-64.5 69
t-51 76.5t-14.5 69.5z" />
    <glyph glyph-name="heart" unicode="&#x2665;" 
d="M55 694q0 64 27.5 122.5t72 100t103.5 63.5t118 20.5t119 -38t104 -104.5q48 69 109 105t120.5 37.5t118 -20.5t102 -63.5t70.5 -100t27 -122.5q0 -57 -33.5 -117t-93.5 -124t-125.5 -127.5t-149 -152t-145.5 -173.5q-61 85 -144 173.5t-148.5 152t-125.5 127.5t-93 124
t-33 117z" />
    <glyph glyph-name="musicalnotedbl" unicode="&#x266b;" 
d="M150 71q15 -46 71.5 -63t122.5 5q54 17 90.5 57t36.5 75v505l500 129v-434q-54 13 -115 -6q-66 -22 -102 -69.5t-21 -92.5t71.5 -62t121.5 3q59 20 93.5 53.5t34.5 79.5v734q0 8 -6 12.5t-14 2.5l-626 -161q-8 -3 -14 -10.5t-6 -16.5v-574q-53 14 -115 -6
q-65 -20 -101.5 -67.5t-21.5 -93.5z" />
    <glyph glyph-name="uni2709" unicode="&#x2709;" 
d="M100 84l333 333l167 -167l167 167l333 -333h-1000zM100 250v500l250 -250zM100 917l500 -503l500 503h-1000zM850 500l250 250v-500z" />
    <glyph glyph-name="uni270F" unicode="&#x270f;" 
d="M100 0l272 91l-182 182zM263 339l175 -174l500 501l-174 174zM834 910l175 -174l80 75q11 10 11 26t-11 28l-124 124q-13 11 -27.5 11t-26.5 -11z" />
    <glyph glyph-name="uni2713" unicode="&#x2713;" 
d="M412 81l772 772l-66 65l-706 -707l-333 333l-65 -65z" />
    <glyph glyph-name="uni2715" unicode="&#x2715;" 
d="M535 499l-435 436l64 65l436 -436l434 436l66 -66l-436 -435l434 -434l-64 -64l-434 434l-435 -435l-65 65z" />
    <glyph glyph-name="_41" horiz-adv-x="0" 
 />
    <glyph glyph-name="_42" horiz-adv-x="0" 
 />
    <glyph glyph-name="uniE000" unicode="&#xe000;" 
d="M100 500q0 159 91 287t236 182v-144q-90 -48 -143.5 -134.5t-53.5 -190.5q0 -153 108.5 -261.5t261.5 -108.5t261.5 108.5t108.5 261.5q0 104 -53.5 190.5t-143.5 134.5v144q145 -54 236 -182t91 -287q0 -102 -39.5 -194.5t-106.5 -159.5t-159.5 -106.5t-194.5 -39.5
t-194.5 39.5t-159.5 106.5t-106.5 159.5t-39.5 194.5zM513 630q0 -18 12.5 -30.5t31.5 -12.5h86q19 0 31.5 12.5t12.5 30.5v347q0 18 -12.5 30.5t-31.5 12.5h-86q-19 0 -31.5 -12.5t-12.5 -30.5v-347z" />
    <glyph glyph-name="uniE001" unicode="&#xe001;" 
d="M30 1100h1140q12 0 21 -5.5t9 -13.5v-112q0 -8 -9 -13.5t-21 -5.5h-1140q-12 0 -21 5.5t-9 13.5v112q0 8 9 13.5t21 5.5zM30 750h1140q12 0 21 -5.5t9 -13.5v-112q0 -8 -9 -13.5t-21 -5.5h-1140q-12 0 -21 5.5t-9 13.5v112q0 8 9 13.5t21 5.5zM30 50h1140q12 0 21 -5.5
t9 -13.5v-112q0 -8 -9 -13.5t-21 -5.5h-1140q-12 0 -21 5.5t-9 13.5v112q0 8 9 13.5t21 5.5zM30 400h1140q12 0 21 -5.5t9 -13.5v-112q0 -8 -9 -13.5t-21 -5.5h-1140q-12 0 -21 5.5t-9 13.5v112q0 8 9 13.5t21 5.5z" />
    <glyph glyph-name="uniE002" unicode="&#xe002;" 
d="M150 650q62 0 106 -44t44 -106t-44 -106t-106 -44t-106 44t-44 106t44 106t106 44zM600 650q62 0 106 -44t44 -106t-44 -106t-106 -44t-106 44t-44 106t44 106t106 44zM1050 650q62 0 106 -44t44 -106t-44 -106t-106 -44t-106 44t-44 106t44 106t106 44z" />
    <glyph glyph-name="uniE003" unicode="&#xe003;" 
d="M600 1100q62 0 106 -44t44 -106t-44 -106t-106 -44t-106 44t-44 106t44 106t106 44zM600 650q62 0 106 -44t44 -106t-44 -106t-106 -44t-106 44t-44 106t44 106t106 44zM600 200q62 0 106 -44t44 -106t-44 -106t-106 -44t-106 44t-44 106t44 106t106 44z" />
    <glyph glyph-name="uniE004" unicode="&#xe004;" 
d="M193 354v-187q0 -74 67 -74h194v-93h-208q-66 0 -106 41t-40 108v205h93zM1100 354v-205q0 -67 -40 -108t-106 -41h-208v93h194q68 0 68 74v187h92zM100 646v205q0 67 40 108t106 41h208v-92h-194q-67 0 -67 -75v-187h-93zM1008 646v187q0 75 -68 75h-194v92h208
q66 0 106 -41t40 -108v-205h-92zM1100 454h-1000v92h1000v-92z" />
    <glyph glyph-name="uniE005" unicode="&#xe005;" 
d="M78 482l527 518l518 -518h-161v-482h-241v322h-241v-322h-241v482h-161z" />
    <glyph glyph-name="uniE006" unicode="&#xe006;" 
d="M100 500q0 102 39.5 194.5t106.5 159.5t159.5 106.5t194.5 39.5t194.5 -39.5t159.5 -106.5t106.5 -159.5t39.5 -194.5q0 -136 -67 -251t-182 -182t-250.5 -67t-251 67t-182.5 182t-67 251zM308 653q-6 -28 5 -77.5t6 -73.5q0 -7 14.5 -36.5t13.5 -50.5q10 0 19 -4.5
t19 -12.5t17 -11q20 -10 90 -36q19 -6 45 -26t49.5 -32.5t48.5 -8.5q6 -15 -13 -46t-17 -48q36 -59 73 -67q0 -5 -2.5 -13t-3 -12t4.5 -14q87 -3 185 93q25 25 39 40t28.5 41t17.5 52q-12 7 -31 7.5t-30 6.5q-12 6 -41.5 12.5t-43.5 15.5q-7 0 -32.5 -0.5t-39 -1t-33 -5
t-32.5 -14.5q-42 -29 -55 -10q-4 2 -3.5 21.5t0.5 21.5q-5 11 -22 14.5t-20 5.5q1 19 -2 34.5t-13.5 23t-32.5 -16.5q-19 -21 -35 3t-7 49q5 13 18 18q5 0 22 -0.5t28.5 -3.5t16.5 -12q10 -15 26.5 -30.5t28.5 -23.5l12 -7q0 3 7.5 33.5t4.5 48.5q-3 19 12.5 37t18.5 26
q4 12 8.5 29.5t7 26t13 19t28.5 17.5q-5 15 8 31q7 0 20 -1t20.5 -1t17 3.5t17.5 12.5q-9 20 -26 36t-31.5 25t-41 22.5t-36.5 19.5q9 32 2 36q26 -11 48.5 -12t32.5 3l9 3q6 31 -13.5 45.5t-54 23.5t-47.5 19q-15 -2 -30 0q-13 -10 -31 -17.5t-29 -10t-37 -6.5t-32 -5
q-13 -3 -38.5 0t-38.5 -2q-17 -6 -43 -22t-28 -29q-3 -9 5 -18.5t7 -15.5q-2 -28 -22.5 -75.5t-25.5 -66.5zM529 767q3 10 14 25t13 21q8 -9 15.5 -9t12 5t12 12t13.5 11q0 -20 14 -55.5t14 -36.5q-7 1 -25.5 3.5t-30.5 4.5t-27 7t-25 12zM675 839h1h-1z" />
    <glyph glyph-name="uniE007" unicode="&#xe007;" 
d="M0 -100h500v500h-200v100h-100v-100h-200v-500zM0 500h100v100h400v100h100v100h-100v300h-500v-600zM100 0v300h300v-300h-300zM100 700v300h300v-300h-300zM200 100v100h100v-100h-100zM200 800h100v100h-100v-100zM500 400v100h300v-300h200v-100h-100v-100h-200v100
h-100v100h100v200h-200zM600 -100v100h100v-100h-100zM600 900h100v-300h200v-300h300v200h-200v100h200v500h-600v-200zM800 700v300h300v-300h-300zM900 -100v100h300v-100h-300zM900 800v100h100v-100h-100zM1100 100v100h100v-100h-100z" />
    <glyph glyph-name="uniE008" unicode="&#xe008;" 
d="M0 100h100v1000h-100v-1000zM100 -100v100h300v-100h-300zM200 100v1000h100v-1000h-100zM500 -100v91h100v-91h-100zM500 100v1000h200v-1000h-200zM700 -100v91h100v-91h-100zM800 100v1000h100v-1000h-100zM900 -100v91h200v-91h-200zM1000 100v1000h200v-1000h-200z
" />
    <glyph glyph-name="uniE009" unicode="&#xe009;" 
d="M260 1000h638q33 0 59 -34.5t26 -71.5v-794l-596 -100v809l511 106h-596v-851h-85v872q0 20 13 42t30 22zM472 426v-86l85 17v86z" />
    <glyph glyph-name="uniE00A" unicode="&#xe00a;" 
d="M600 1000q28 0 64 -5l34 -132l4 -1q43 -12 82 -34l4 -2l117 70q53 -42 91 -92l-70 -116l2 -5q22 -38 35 -81v-5l133 -34q4 -37 4 -63q0 -30 -4 -64l-133 -33v-5q-14 -44 -35 -82l-2 -4l70 -117q-43 -53 -91 -92l-117 71l-4 -2q-38 -23 -82 -34l-4 -2l-34 -132
q-37 -4 -64 -4q-28 0 -64 4l-33 132l-5 2q-43 11 -82 34l-4 2l-117 -71q-52 42 -91 92l70 117l-2 4q-22 39 -34 82l-1 5l-132 33q-5 37 -5 64q0 29 5 63l132 34l1 5q12 42 34 81l2 5l-70 116q42 54 92 92l116 -70l4 2q39 22 82 34l5 1l33 132q37 5 64 5zM600.5 687
q-77.5 0 -132.5 -55t-55 -132t55 -132t132.5 -55t132.5 55t55 132t-55 132t-132.5 55z" />
    <glyph glyph-name="_59" 
 />
    <glyph glyph-name="uniE00C" unicode="&#xe00c;" 
d="M1195 7q5 -6 5 -13t-5 -13l-77 -77q-6 -4 -13 -4t-13 4l-306 304l103 102zM540 120q-181 0 -310.5 129.5t-129.5 310.5q0 182 129.5 311t310.5 129q182 0 311 -129t129 -311q0 -181 -129 -310.5t-311 -129.5zM882 560q0 142 -100 242t-242 100t-242 -100t-100 -242
t100 -242t242 -100t242 100t100 242z" />
    <glyph glyph-name="uniE00D" unicode="&#xe00d;" 
d="M483 340v168h-163v105h163v167h104v-167h173v-105h-173v-168h-104zM786 208l306 -304q6 -4 13 -4t13 4l77 77q5 6 5 14q0 6 -5 12l-306 303zM851 250q129 129 129 310q0 182 -129 311t-311 129q-181 0 -310 -129q-130 -129 -130 -311q0 -181 130 -310q129 -130 310 -130
q182 0 311 130zM782 318q-100 -100 -242 -100t-242 100t-100 242t100 242t242 100t242 -100t100 -242t-100 -242z" />
    <glyph glyph-name="uniE00E" unicode="&#xe00e;" 
d="M760 610h-440v-99h440v99zM786 208l306 -304q6 -4 13 -4t13 4l77 77q5 6 5 14q0 6 -5 12l-306 303zM851 250q129 129 129 310q0 182 -129 311t-311 129q-181 0 -310 -129q-130 -129 -130 -311q0 -181 130 -310q129 -130 310 -130q182 0 311 130zM782 318
q-100 -100 -242 -100t-242 100t-100 242t100 242t242 100t242 -100t100 -242t-100 -242z" />
    <glyph glyph-name="uniE00F" unicode="&#xe00f;" 
d="M130 783v39q0 9 6.5 15t14.5 6h235v78q0 33 25.5 56t60.5 23h256q35 0 60.5 -23t25.5 -56v-78h235q8 0 14.5 -6t6.5 -15v-39q0 -9 -6 -14.5t-15 -5.5h-898q-9 0 -15 5.5t-6 14.5zM215 79v631h770v-631q0 -32 -25.5 -55.5t-60.5 -23.5h-598q-35 0 -60.5 23.5t-25.5 55.5z
M301 79h85v553h-85v-553zM472 79h85v553h-85v-553zM472 843h256v78h-256v-78zM643 79h85v553h-85v-553zM814 79h85v553h-85v-553z" />
    <glyph glyph-name="uniE010" unicode="&#xe010;" 
d="M55 0v1000h1091v-1000h-1091zM146 91h91v91h-91v-91zM146 273h91v91h-91v-91zM146 455h91v90h-91v-90zM146 636h91v91h-91v-91zM146 818h91v91h-91v-91zM328 91h545v364h-545v-364zM328 545h545v364h-545v-364zM964 91h91v91h-91v-91zM964 273h91v91h-91v-91zM964 455h91
v90h-91v-90zM964 636h91v91h-91v-91zM964 818h91v91h-91v-91z" />
    <glyph glyph-name="uniE011" unicode="&#xe011;" 
d="M100 42v340q0 18 12 30.5t30 12.5h340q18 0 30.5 -12.5t12.5 -30.5v-340q0 -18 -12.5 -30t-30.5 -12h-340q-18 0 -30 12t-12 30zM100 618v340q0 18 12 30t30 12h340q18 0 30.5 -12t12.5 -30v-340q0 -18 -12.5 -30.5t-30.5 -12.5h-340q-18 0 -30 12.5t-12 30.5zM675 42
v340q0 18 12.5 30.5t30.5 12.5h340q18 0 30 -12.5t12 -30.5v-340q0 -18 -12 -30t-30 -12h-340q-18 0 -30.5 12t-12.5 30zM675 618v340q0 18 12.5 30t30.5 12h340q18 0 30 -12t12 -30v-340q0 -18 -12 -30.5t-30 -12.5h-340q-18 0 -30.5 12.5t-12.5 30.5z" />
    <glyph glyph-name="uniE012" unicode="&#xe012;" 
d="M100 45v180q0 18 13 31.5t32 13.5h180q18 0 31.5 -13.5t13.5 -31.5v-180q0 -19 -13.5 -32t-31.5 -13h-180q-19 0 -32 13t-13 32zM100 410v180q0 19 13 32t32 13h180q18 0 31.5 -13t13.5 -32v-180q0 -19 -13.5 -32t-31.5 -13h-180q-19 0 -32 13t-13 32zM100 775v180
q0 19 13 32t32 13h180q18 0 31.5 -13t13.5 -32v-180q0 -18 -13.5 -31.5t-31.5 -13.5h-180q-19 0 -32 13.5t-13 31.5zM465 45v180q0 18 13 31.5t32 13.5h180q19 0 32 -13.5t13 -31.5v-180q0 -19 -13 -32t-32 -13h-180q-19 0 -32 13t-13 32zM465 410v180q0 19 13 32t32 13h180
q19 0 32 -13t13 -32v-180q0 -19 -13 -32t-32 -13h-180q-19 0 -32 13t-13 32zM465 775v180q0 19 13 32t32 13h180q19 0 32 -13t13 -32v-180q0 -18 -13 -31.5t-32 -13.5h-180q-19 0 -32 13.5t-13 31.5zM830 45v180q0 18 13.5 31.5t31.5 13.5h180q19 0 32 -13.5t13 -31.5v-180
q0 -19 -13 -32t-32 -13h-180q-18 0 -31.5 13t-13.5 32zM830 410v180q0 19 13.5 32t31.5 13h180q19 0 32 -13t13 -32v-180q0 -19 -13 -32t-32 -13h-180q-18 0 -31.5 13t-13.5 32zM830 775v180q0 19 13.5 32t31.5 13h180q19 0 32 -13t13 -32v-180q0 -18 -13 -31.5t-32 -13.5
h-180q-18 0 -31.5 13.5t-13.5 31.5z" />
    <glyph glyph-name="uniE013" unicode="&#xe013;" 
d="M670 25v100q0 10 7.5 17.5t19.5 7.5h376q12 0 19.5 -7.5t7.5 -17.5v-100q0 -11 -7.5 -18t-19.5 -7h-376q-12 0 -19.5 7t-7.5 18zM670 591v101q0 10 7.5 17.5t19.5 7.5h376q12 0 19.5 -7.5t7.5 -17.5v-101q0 -10 -7.5 -17t-19.5 -7h-376q-12 0 -19.5 7t-7.5 17zM670 875
v100q0 11 7.5 18t19.5 7h376q12 0 19.5 -7t7.5 -18v-100q0 -10 -7.5 -17.5t-19.5 -7.5h-376q-12 0 -19.5 7.5t-7.5 17.5zM100 25v100q0 10 7.5 17.5t19.5 7.5h376q12 0 19.5 -7.5t7.5 -17.5v-100q0 -11 -7.5 -18t-19.5 -7h-376q-12 0 -19.5 7t-7.5 18zM100 591v101
q0 10 7.5 17.5t19.5 7.5h376q12 0 19.5 -7.5t7.5 -17.5v-101q0 -10 -7.5 -17t-19.5 -7h-376q-12 0 -19.5 7t-7.5 17zM100 875v100q0 11 7.5 18t19.5 7h376q12 0 19.5 -7t7.5 -18v-100q0 -10 -7.5 -17.5t-19.5 -7.5h-376q-12 0 -19.5 7.5t-7.5 17.5zM670 308v101q0 10 7.5 17
t19.5 7h376q12 0 19.5 -7t7.5 -17v-101q0 -10 -7.5 -17.5t-19.5 -7.5h-376q-12 0 -19.5 7.5t-7.5 17.5zM100 308v101q0 10 7.5 17t19.5 7h376q12 0 19.5 -7t7.5 -17v-101q0 -10 -7.5 -17.5t-19.5 -7.5h-376q-12 0 -19.5 7.5t-7.5 17.5z" />
    <glyph glyph-name="uniE014" unicode="&#xe014;" 
d="M142 0h917v1000h-917v-1000zM225 83v750h751v-750h-751zM309 167v83h83v-83h-83zM309 333v84h83v-84h-83zM309 500v83h83v-83h-83zM309 667v83h83v-83h-83zM475 167h417v83h-417v-83zM475 333v84h417v-84h-417zM475 500v83h417v-83h-417zM475 667v83h417v-83h-417z" />
    <glyph glyph-name="uniE015" unicode="&#xe015;" 
d="M55 38q0 -15 13 -26.5t32 -11.5h1001q19 0 32 11.5t13 26.5v75q0 15 -13 26t-32 11h-1001q-19 0 -32 -11t-13 -26v-75zM55 321q0 -15 13 -26.5t32 -11.5h728q19 0 32 11.5t13 26.5v75q0 16 -13 26.5t-32 10.5h-728q-19 0 -32 -10.5t-13 -26.5v-75zM55 604q0 -15 13 -26
t32 -11h910q19 0 32 11t13 26v75q0 16 -13 27t-32 11h-910q-19 0 -32 -11t-13 -27v-75zM55 888q0 -15 13 -26.5t32 -11.5h546q19 0 32 11.5t13 26.5v75q0 15 -13 26t-32 11h-546q-19 0 -32 -11t-13 -26v-75z" />
    <glyph glyph-name="uniE016" unicode="&#xe016;" 
d="M55 38q0 -15 13 -26.5t32 -11.5h1001q19 0 32 11.5t13 26.5v75q0 15 -13 26t-32 11h-1001q-19 0 -32 -11t-13 -26v-75zM55 604q0 -15 13 -26t32 -11h1001q19 0 32 11t13 26v75q0 16 -13 27t-32 11h-1001q-19 0 -32 -11t-13 -27v-75zM237 321q0 -15 13 -26.5t32 -11.5h636
q19 0 32.5 11.5t13.5 26.5v75q0 16 -13.5 26.5t-32.5 10.5h-636q-19 0 -32 -10.5t-13 -26.5v-75zM237 888q0 -15 13 -26.5t32 -11.5h636q19 0 32.5 11.5t13.5 26.5v75q0 15 -13.5 26t-32.5 11h-636q-19 0 -32 -11t-13 -26v-75z" />
    <glyph glyph-name="uniE017" unicode="&#xe017;" 
d="M55 38v75q0 15 13 26t32 11h1001q19 0 32 -11t13 -26v-75q0 -15 -13 -26.5t-32 -11.5h-1001q-19 0 -32 11.5t-13 26.5zM146 604v75q0 16 13 27t32 11h909q20 0 33 -11t13 -27v-75q0 -15 -13 -26t-33 -11h-909q-19 0 -32 11t-13 26zM328 321v75q0 16 13 26.5t32 10.5h727
q19 0 32.5 -10.5t13.5 -26.5v-75q0 -15 -13.5 -26.5t-32.5 -11.5h-727q-19 0 -32 11.5t-13 26.5zM510 888v75q0 15 13 26t32 11h545q19 0 32.5 -11t13.5 -26v-75q0 -15 -13.5 -26.5t-32.5 -11.5h-545q-19 0 -32 11.5t-13 26.5z" />
    <glyph glyph-name="uniE018" unicode="&#xe018;" 
d="M55 38v75q0 15 13 26t32 11h1001q19 0 32 -11t13 -26v-75q0 -15 -13 -26.5t-32 -11.5h-1001q-19 0 -32 11.5t-13 26.5zM55 321v75q0 16 13 26.5t32 10.5h1001q19 0 32 -10.5t13 -26.5v-75q0 -15 -13 -26.5t-32 -11.5h-1001q-19 0 -32 11.5t-13 26.5zM55 604v75
q0 16 13 27t32 11h1001q19 0 32 -11t13 -27v-75q0 -15 -13 -26t-32 -11h-1001q-19 0 -32 11t-13 26zM55 888v75q0 15 13 26t32 11h1001q19 0 32 -11t13 -26v-75q0 -15 -13 -26.5t-32 -11.5h-1001q-19 0 -32 11.5t-13 26.5z" />
    <glyph glyph-name="uniE019" unicode="&#xe019;" 
d="M55 38v75q0 15 13 26t32 11h91q19 0 32.5 -11t13.5 -26v-75q0 -15 -13.5 -26.5t-32.5 -11.5h-91q-19 0 -32 11.5t-13 26.5zM55 321v75q0 16 13 26.5t32 10.5h91q19 0 32.5 -10.5t13.5 -26.5v-75q0 -15 -13.5 -26.5t-32.5 -11.5h-91q-19 0 -32 11.5t-13 26.5zM55 604v75
q0 16 13 27t32 11h91q19 0 32.5 -11t13.5 -27v-75q0 -15 -13.5 -26t-32.5 -11h-91q-19 0 -32 11t-13 26zM55 888v75q0 15 13 26t32 11h91q19 0 32.5 -11t13.5 -26v-75q0 -15 -13.5 -26.5t-32.5 -11.5h-91q-19 0 -32 11.5t-13 26.5zM328 38v75q0 15 13 26t32 11h728
q19 0 32 -11t13 -26v-75q0 -15 -13 -26.5t-32 -11.5h-728q-19 0 -32 11.5t-13 26.5zM328 321v75q0 16 13 26.5t32 10.5h728q19 0 32 -10.5t13 -26.5v-75q0 -15 -13 -26.5t-32 -11.5h-728q-19 0 -32 11.5t-13 26.5zM328 604v75q0 16 13 27t32 11h728q19 0 32 -11t13 -27v-75
q0 -15 -13 -26t-32 -11h-728q-19 0 -32 11t-13 26zM328 888v75q0 15 13 26t32 11h728q19 0 32 -11t13 -26v-75q0 -15 -13 -26.5t-32 -11.5h-728q-19 0 -32 11.5t-13 26.5z" />
    <glyph glyph-name="uniE01A" unicode="&#xe01a;" 
d="M9 455v90h183v69l151 -114l-151 -114v69h-183zM374 0h91v1000h-91v-1000zM555 38q0 -15 13.5 -26.5t32.5 -11.5h546q18 0 31.5 11.5t13.5 26.5v75q0 15 -13.5 26t-31.5 11h-546q-19 0 -32.5 -11t-13.5 -26v-75zM555 321q0 -15 13.5 -26.5t32.5 -11.5h273q18 0 31.5 11.5
t13.5 26.5v75q0 16 -13.5 26.5t-31.5 10.5h-273q-19 0 -32.5 -10.5t-13.5 -26.5v-75zM555 604q0 -15 13.5 -26t32.5 -11h455q18 0 31.5 11t13.5 26v75q0 16 -13.5 27t-31.5 11h-455q-19 0 -32.5 -11t-13.5 -27v-75zM555 888q0 -15 13.5 -26.5t32.5 -11.5h91q18 0 31.5 11.5
t13.5 26.5v75q0 15 -13.5 26t-31.5 11h-91q-19 0 -32.5 -11t-13.5 -26v-75z" />
    <glyph glyph-name="uniE01B" unicode="&#xe01b;" 
d="M9 38q0 -15 13 -26.5t32 -11.5h546q18 0 31.5 11.5t13.5 26.5v75q0 15 -13.5 26t-31.5 11h-546q-19 0 -32 -11t-13 -26v-75zM9 321q0 -15 13 -26.5t33 -11.5h273q18 0 31.5 11.5t13.5 26.5v75q0 16 -13.5 26.5t-31.5 10.5h-273q-20 0 -33 -10.5t-13 -26.5v-75zM9 604
q0 -15 13 -26t33 -11h455q18 0 31.5 11t13.5 26v75q0 16 -13.5 27t-31.5 11h-455q-20 0 -33 -11t-13 -27v-75zM9 888q0 -15 15.5 -26.5t38.5 -11.5h107q22 0 38 11.5t16 26.5v75q0 15 -16 26t-38 11h-107q-23 0 -38.5 -11t-15.5 -26v-75zM736 0v1000h91v-1000h-91zM857 500
l152 -114v69h182v90h-182v69z" />
    <glyph glyph-name="_76" horiz-adv-x="0" 
 />
    <glyph glyph-name="_77" 
 />
    <glyph glyph-name="_78" 
 />
    <glyph glyph-name="_79" 
 />
    <glyph glyph-name="uniE020" unicode="&#xe020;" 
d="M133 500l-33 175h53q76 -66 108 -141l238 11q64 0 64 50l-147 405h22q53 0 139 -118h66q31 0 31 -20v-21q0 -14 -28 -14h-26l57 -89h56q30 0 30 -20v-21q0 -14 -28 -14l-24 -1l49 -67q37 -70 97 -70h151q92 0 92 -45t-92 -45h-151q-60 0 -97 -70l-49 -67h24q28 0 28 -15
v-20q0 -20 -30 -20h-56l-57 -90h26q28 0 28 -14v-21q0 -20 -31 -20h-66q-86 -118 -139 -118h-22l147 405q0 50 -64 50l-238 11q-32 -75 -108 -141h-53z" />
    <glyph glyph-name="uniE021" unicode="&#xe021;" 
d="M50 0h183v275h-183v-275zM325 0v458h184v-458h-184zM600 0v733h184v-733h-184zM877 0v1000h183v-1000h-183z" />
    <glyph glyph-name="uniE022" unicode="&#xe022;" 
d="M598.5 110q-11.5 0 -52 41t-40.5 53q0 17 34.5 29.5t58 12.5t58.5 -12.5t35 -29.5q0 -12 -41 -53t-52.5 -41zM750 261q-2 0 -23 14.5t-56.5 28t-72 13.5t-72 -13.5t-56 -28t-22.5 -14.5q-10 0 -52.5 42.5t-42.5 52.5q0 6 5 13q45 43 111 67.5t130 24.5t130 -24.5
t110 -67.5q6 -7 6 -13q0 -10 -42.5 -52.5t-52.5 -42.5zM902 413q-5 0 -11 6q-77 58 -142 86t-150 28q-48 0 -96 -12.5t-83.5 -30t-63.5 -35t-44 -30t-17 -12.5q-9 0 -51.5 42.5t-42.5 52.5q0 7 6 13q73 73 178.5 114.5t213 41.5t213 -41.5t178.5 -114.5q6 -6 6 -13
q0 -10 -41.5 -52.5t-52.5 -42.5zM1055 566q-7 0 -12 5q-101 87 -209 131.5t-235.5 44.5t-235.5 -44.5t-209 -131.5q-5 -5 -11 -5q-10 0 -52 41.5t-42 51.5q0 8 6 14q104 103 249 160.5t295 57.5t294.5 -57.5t250.5 -160.5q5 -6 5 -14q0 -10 -42.5 -51.5t-51.5 -41.5z" />
    <glyph glyph-name="uniE023" unicode="&#xe023;" 
d="M647 206l97 96l-97 96v-192zM647 602l97 96l-97 95v-191zM666 500l198 -199l-301 -301v397l-166 -166l-60 61l208 208l-208 208l60 60l166 -165v397l301 -302z" />
    <glyph glyph-name="uniE024" unicode="&#xe024;" 
d="M640 412l83 -83l-83 -82v165zM640 753l83 -83l-83 -82v165zM567 70l259 259l-171 171l171 170l-259 259v-341l-142 143l-52 -52l179 -179l-179 -179l52 -53l142 143v-341zM969 500q0 -117 -18 -204.5t-49 -143.5t-78.5 -90.5t-101 -48t-122.5 -13.5t-122.5 13.5t-101 48
t-78.5 90.5t-49 143.5t-18 204.5t18 204t49 143t78.5 91t101 48.5t122.5 13.5t122.5 -13.5t101 -48.5t78.5 -91t49 -143t18 -204z" />
    <glyph glyph-name="uniE025" unicode="&#xe025;" 
 />
    <glyph glyph-name="uniE026" unicode="&#xe026;" 
 />
    <glyph glyph-name="uniE027" unicode="&#xe027;" 
 />
    <glyph glyph-name="uniE028" unicode="&#xe028;" 
 />
    <glyph glyph-name="uniE029" unicode="&#xe029;" 
 />
    <glyph glyph-name="_90" 
 />
    <glyph glyph-name="_91" 
 />
    <glyph glyph-name="_92" horiz-adv-x="0" 
 />
    <glyph glyph-name="_93" horiz-adv-x="0" 
 />
    <glyph glyph-name="_94" horiz-adv-x="0" 
 />
    <glyph glyph-name="_95" 
 />
    <glyph glyph-name="uniE030" unicode="&#xe030;" 
d="M142 83v500q0 35 24.5 59.5t58.5 24.5h84v166q0 69 49 118t117 49h251q68 0 117 -49t49 -118v-166h84q34 0 58.5 -24.5t24.5 -59.5v-500q0 -34 -24.5 -58.5t-58.5 -24.5h-751q-34 0 -58.5 24.5t-24.5 58.5zM475 667h251v125q0 17 -12.5 29t-29.5 12h-167q-17 0 -29.5 -12
t-12.5 -29v-125z" />
    <glyph glyph-name="uniE031" unicode="&#xe031;" 
d="M600 870q-59 0 -101 -28.5t-42 -69.5t42 -69.5t101 -28.5t101.5 28.5t42.5 69.5t-42.5 69.5t-101.5 28.5zM665 207v-39h153v-74h-153v-94h-130v549q-76 15 -134 62q-83 66 -83 161t82.5 161.5t199.5 66.5q116 0 199 -66.5t83 -161.5t-82 -161q-59 -47 -135 -62v-266h112
v-76h-112z" />
    <glyph glyph-name="uniE032" unicode="&#xe032;" 
d="M1072 205q0 -81 -49 -127.5t-130 -46.5h-585q-81 0 -130 46.5t-49 127.5q0 35 2.5 69t9.5 73t17.5 72.5t28.5 65.5t41.5 54.5t57.5 35.5t75 13q6 0 28 -14t50 -32t72.5 -32.5t89 -14.5t89 14.5t72.5 32.5t50 32t28 14q41 0 75 -13t57.5 -35.5t41.5 -54.5t28.5 -65.5
t17.5 -72.5t9.5 -73t2.5 -69zM858 802.5q0 -106.5 -75.5 -181.5t-182 -75t-182 75t-75.5 181.5t75.5 182t182 75.5t182 -75.5t75.5 -182z" />
    <glyph glyph-name="uniE033" unicode="&#xe033;" 
d="M412.5 493q-93.5 0 -159 66t-65.5 159t65.5 159t159 66t159.5 -66t66 -159t-66 -159t-159.5 -66zM975 418h207q7 0 12.5 -5.5t5.5 -13.5v-113q0 -7 -5.5 -12.5t-12.5 -5.5h-207v-207q0 -7 -5.5 -12.5t-12.5 -5.5h-113q-8 0 -13.5 5.5t-5.5 12.5v207h-206q-8 0 -13.5 5.5
t-5.5 12.5v113q0 8 5.5 13.5t13.5 5.5h206v206q0 8 5.5 13.5t13.5 5.5h113q7 0 12.5 -5.5t5.5 -13.5v-206zM544 286q0 -30 22 -52.5t53 -22.5h150v-139q-40 -29 -100 -29h-513q-70 0 -113 40t-43 111q0 31 2 61t8 64t15.5 63.5t25.5 57.5t36.5 47.5t50 31t65.5 11.5
q11 0 23 -10q46 -35 90 -53t96.5 -18t96.5 18t91 53q11 10 22 10q78 0 128 -56h-131q-31 0 -53 -22.5t-22 -52.5v-113z" />
    <glyph glyph-name="uniE034" unicode="&#xe034;" 
d="M414.5 493q-93.5 0 -160 66t-66.5 159t66.5 159t160 66t160 -66t66.5 -159t-66.5 -159t-160 -66zM1048 305l147 -146q5 -5 5 -13t-5 -13l-80 -80q-5 -5 -13 -5t-13 5l-147 146l-147 -146q-5 -5 -13 -5t-13 5l-80 80q-6 5 -6 13t6 13l146 146l-146 146q-6 5 -6 14
q0 7 6 13l80 79q5 5 13 5t13 -5l147 -146l147 146q5 5 13 5t13 -5l80 -79q5 -6 5 -13q0 -9 -5 -14zM755 305l-106 -106q-22 -22 -22 -53t22 -53l49 -49q-13 -1 -26 -1h-515q-71 0 -114 40.5t-43 110.5q0 31 2 61t8 64t15.5 63.5t25.5 57.5t36.5 47.5t50.5 31t66 11.5
q11 0 23 -10q90 -71 187.5 -71t187.5 71q12 10 23 10q17 0 34 -3q-17 -16 -24.5 -29.5t-7.5 -32.5q0 -32 22 -54z" />
    <glyph glyph-name="uniE035" unicode="&#xe035;" 
d="M396 530q-90 -3 -148 -72h-75q-46 0 -77 22.5t-31 66.5q0 197 69 197q3 0 24 -11.5t55 -23.5t66 -12q38 0 74 12q-2 -21 -2 -36q0 -78 45 -143zM993 174q0 -66 -40.5 -105t-108.5 -39h-488q-67 0 -108 39t-41 105q0 30 2.5 58t8 60.5t15 60.5t24.5 54.5t34.5 45.5t47 30
t62.5 11q5 0 23.5 -12t41 -27t59.5 -26.5t75 -11.5t75.5 11.5t60 26.5t41 27t23.5 12q34 0 62 -11t47.5 -30t34.5 -45.5t24.5 -54.5t15 -60.5t7.5 -60.5t2 -58zM422 887q0 -59 -42 -101t-101 -42t-100.5 42t-41.5 101t41.5 101t100.5 42t101 -42t42 -101zM815 672.5
q0 -88.5 -63 -151.5t-152 -63t-151.5 63t-62.5 151.5t62.5 151.5t151.5 63t152 -63t63 -151.5zM1136 547q0 -44 -31 -66.5t-77 -22.5h-75q-58 69 -148 72q45 65 45 143q0 15 -2 36q36 -12 74 -12q32 0 65.5 12t55 23.5t24.5 11.5q69 0 69 -197zM1064 887q0 -59 -41.5 -101
t-100.5 -42t-101 42t-42 101t42 101t101 42t100.5 -42t41.5 -101z" />
    <glyph glyph-name="uniE036" unicode="&#xe036;" horiz-adv-x="1371" 
 />
    <glyph glyph-name="uniE037" unicode="&#xe037;" horiz-adv-x="1371" 
 />
    <glyph glyph-name="uniE038" unicode="&#xe038;" horiz-adv-x="1286" 
 />
    <glyph glyph-name="uniE039" unicode="&#xe039;" 
 />
    <glyph glyph-name="_106" 
 />
    <glyph glyph-name="_107" horiz-adv-x="0" 
 />
    <glyph glyph-name="_108" horiz-adv-x="0" 
 />
    <glyph glyph-name="_109" horiz-adv-x="0" 
 />
    <glyph glyph-name="_110" horiz-adv-x="0" 
 />
    <glyph glyph-name="_111" horiz-adv-x="0" 
 />
    <glyph glyph-name="uniE040" unicode="&#xe040;" 
d="M55 0v727h1091v-727h-1091zM55 818v91h182q0 37 26.5 64t64.5 27h273q37 0 63.5 -27t26.5 -64h455v-91h-1091z" />
    <glyph glyph-name="uniE041" unicode="&#xe041;" 
d="M0 0l273 636h1091l-273 -636h-1091zM0 364v545h182q0 37 27 64t64 27h273q37 0 64 -27t27 -64h454v-182h-909z" />
    <glyph glyph-name="uniE042" unicode="&#xe042;" 
d="M100 583l1 396q0 9 6 15t15 6h395l583 -583l-417 -417zM223 794q0 -35 25 -59q25 -25 59.5 -25t59.5 25q24 24 24 59t-24 59q-25 25 -59.5 25t-59.5 -25q-25 -24 -25 -59z" />
    <glyph glyph-name="uniE043" unicode="&#xe043;" 
d="M0 583l1 396q0 9 6 15t15 6h395l583 -583l-417 -417zM123 794q0 -35 25 -59q24 -25 59 -25t59 25q25 24 25 59t-25 59q-24 25 -59 25t-59 -25q-25 -24 -25 -59zM533 1000h84l583 -583l-417 -417l-41 42l375 375z" />
    <glyph glyph-name="uniE044" unicode="&#xe044;" 
d="M142 0v854l146 146h771v-833l-83 -84v834h-626l-83 -84h625v-833h-750z" />
    <glyph glyph-name="uniE045" unicode="&#xe045;" 
d="M225 0l375 370l375 -369v957q0 17 -12 29.5t-30 12.5h-666q-18 0 -30 -12.5t-12 -29.5v-958z" />
    <glyph glyph-name="uniE046" unicode="&#xe046;" 
d="M225 21v958q0 9 6 15t15 6h396v-417h333v-562q0 -9 -6 -15t-15 -6h-708q-9 0 -15 6t-6 15zM725 667v250l250 -250h-250z" />
    <glyph glyph-name="uniE047" unicode="&#xe047;" 
d="M100 366l201 -39l-67 -193l193 67l39 -201l134 154l133 -154l39 201l193 -67l-67 193l202 39l-155 134l155 134l-202 38l67 194l-193 -67l-39 201l-133 -155l-134 155l-39 -201l-193 67l67 -194l-201 -38l154 -134z" />
    <glyph glyph-name="uniE048" unicode="&#xe048;" 
d="M55 364v545q0 37 27 64t64 27h909q37 0 64 -27t27 -64v-545q0 -38 -27 -64.5t-64 -26.5h-542l-276 -273v273h-91q-37 0 -64 26.5t-27 64.5z" />
    <glyph glyph-name="uniE049" unicode="&#xe049;" 
d="M430 574.5q0 35.5 -25.5 60t-60.5 24.5t-60 -24.5t-25 -60t25 -60.5t60 -25t60.5 25t25.5 60.5zM685 574.5q0 35.5 -25 60t-60 24.5t-60 -24.5t-25 -60t25 -60.5t60 -25t60 25t25 60.5zM941 574.5q0 35.5 -25 60t-60 24.5t-60.5 -24.5t-25.5 -60t25.5 -60.5t60.5 -25
t60 25t25 60.5zM1196 574.5q0 -115.5 -80 -213.5t-217 -155t-299 -57q-74 0 -140 12q-115 -115 -290 -152q-34 -7 -57 -9q-8 -1 -15 4t-9 12q-2 10 14 25q3 3 15.5 14t17 15.5t15.5 16.5t16 21t14 25t13.5 32t9.5 38t9 48q-98 60 -153.5 144.5t-55.5 179.5q0 115 80 213.5
t217 155t299 56.5t299 -56.5t217 -155t80 -214z" />
    <glyph glyph-name="_122" horiz-adv-x="0" 
 />
    <glyph glyph-name="_123" horiz-adv-x="0" 
 />
    <glyph glyph-name="_124" horiz-adv-x="0" 
 />
    <glyph glyph-name="_125" horiz-adv-x="0" 
 />
    <glyph glyph-name="_126" horiz-adv-x="0" 
 />
    <glyph glyph-name="_127" horiz-adv-x="0" 
 />
    <glyph glyph-name="uniE050" unicode="&#xe050;" 
d="M122 0h305v55q-35 0 -60.5 9t-40.5 31.5t0 59.5l77 195h326l69 -185q13 -37 -5 -73.5t-62 -36.5v-55h348v55q-28 1 -62 36q-15 16 -27.5 35t-17.5 31l-5 11l-321 832h-78l-333 -839q-20 -40 -43 -63q-10 -10 -27.5 -20.5t-29.5 -16.5l-13 -6v-55zM425 435l148 381
l39 -117l97 -264h-284z" />
    <glyph glyph-name="uniE051" unicode="&#xe051;" 
d="M241 0v74q34 6 58.5 27.5t24.5 54.5v689q0 23 -0.5 33t-4.5 22t-13 17.5t-24 11.5t-41 12v59l392 -1q100 0 177.5 -73t77.5 -190q0 -46 -9.5 -84.5t-23 -61.5t-28 -40t-23.5 -23l-10 -6q7 -3 18 -8t40 -26t50.5 -48t39.5 -76.5t18 -107.5q0 -70 -49 -130.5t-118.5 -92.5
t-134.5 -32h-417zM491 167h134q74 0 127.5 40.5t53.5 110.5q0 75 -52 128.5t-131 53.5h-132v-333zM491 583h116q63 0 108 51.5t45 115.5q0 68 -70 108.5t-199 40.5v-316z" />
    <glyph glyph-name="uniE052" unicode="&#xe052;" 
d="M317 0v48q64 5 112 33t55 67l144 708q8 47 -8.5 62t-75.5 30q-5 1 -9 2.5t-8 2.5v47h354l2 -47q-28 -7 -52 -21.5t-38 -31t-24.5 -32t-14.5 -25.5l-4 -10l-107 -687q-8 -43 12 -68t79 -30v-48h-417z" />
    <glyph glyph-name="uniE053" unicode="&#xe053;" 
d="M27 167h63v666h-63l104 140l104 -140h-62v-666h62l-104 -139zM340 750v250h125h583h125v-250h-42q0 24 -6.5 40.5t-15.5 25t-28 12.5t-32.5 4.5t-42.5 0.5h-166v-708l83 -42v-83h-333v83l83 42v708h-167q-28 0 -42 -0.5t-33.5 -4.5t-27.5 -12.5t-15.5 -25t-7.5 -40.5h-40
z" />
    <glyph glyph-name="uniE054" unicode="&#xe054;" 
d="M156 98l131 98v-59h627v59l131 -98l-131 -98v59h-627v-59zM209 765v235h117h549h117v-235h-39q0 22 -6 37.5t-14 24t-26.5 12t-31.5 4t-39 0.5h-157v-510l78 -39v-78h-313v78l78 39v510h-157q-26 0 -39 -0.5t-31 -4t-26.5 -12t-14.5 -24t-6 -37.5h-39z" />
    <glyph glyph-name="uniE055" unicode="&#xe055;" 
d="M184 250h165v750h167v-750h165l-249 -250zM766 0v167h83v-84h167v-83h-250zM766 333v84h250v-167h-83v-83h-83v83h83v83h-167zM766 583v417h250v-417h-83v84h-84v-84h-83zM850 750h83v167h-83v-167z" />
    <glyph glyph-name="uniE056" unicode="&#xe056;" 
d="M184 250h165v750h167v-750h165l-249 -250zM766 0v417h250v-417h-83v83h-84v-83h-83zM766 583v167h83v-83h167v-84h-250zM766 917v83h250v-167h-83v-83h-83v83h83v84h-167zM850 167h83v166h-83v-166z" />
    <glyph glyph-name="uniE057" unicode="&#xe057;" 
d="M143 250l248 -250l249 250h-165v750h-167v-750h-165zM808 83v334h250v-417h-83v83h-167zM808 917v83h167v-417h-84v334h-83zM892 167h84v166h-84v-166z" />
    <glyph glyph-name="uniE058" unicode="&#xe058;" 
d="M143 250l248 -250l249 250h-165v750h-167v-750h-165zM808 333v84h167v-417h-84v333h-83zM808 667v333h250v-417h-83v84h-167zM892 750h84v167h-84v-167z" />
    <glyph glyph-name="uniE059" unicode="&#xe059;" 
d="M101 250l248 -250l249 250h-165v750h-167v-750h-165zM682 83v150h417v-150h-417zM682 339v150h334v-150h-334zM682 594v150h250v-150h-250zM682 850v150h167v-150h-167z" />
    <glyph glyph-name="_138" 
d="M101 250l248 -250l249 250h-165v750h-167v-750h-165zM682 83v150h167v-150h-167zM682 339v150h250v-150h-250zM682 594v150h334v-150h-334zM682 850v150h417v-150h-417z" />
    <glyph glyph-name="_139" horiz-adv-x="0" 
 />
    <glyph glyph-name="_140" horiz-adv-x="0" 
 />
    <glyph glyph-name="_141" horiz-adv-x="0" 
 />
    <glyph glyph-name="_142" horiz-adv-x="0" 
 />
    <glyph glyph-name="_143" horiz-adv-x="0" 
 />
    <glyph glyph-name="uniE060" unicode="&#xe060;" 
d="M100 229v542q0 26 18.5 44.5t44.5 18.5h625q25 0 43.5 -18.5t18.5 -44.5v-542q0 -26 -18.5 -44t-43.5 -18h-625q-26 0 -44.5 18t-18.5 44zM850 500l250 250v-500z" />
    <glyph glyph-name="uniE061" unicode="&#xe061;" 
d="M54 40v920q0 16 11.5 28t28.5 12h1010q18 0 29.5 -12t11.5 -28v-920q0 -16 -11.5 -28t-29.5 -12h-1010q-17 0 -28.5 12t-11.5 28zM144 239l225 166l271 -120l-67 142l266 289l215 -261v454h-910v-670zM243 682q0 51 35.5 86.5t86 35.5t86 -35.5t35.5 -86.5t-35.5 -86.5
t-86 -35.5t-86 35.5t-35.5 86.5z" />
    <glyph glyph-name="uniE062" unicode="&#xe062;" 
d="M349 762q0 -56 20 -110.5t53 -102.5t68 -95.5t70 -108t45 -90.5q4 15 26.5 59t46.5 79.5t50.5 72t49.5 71t41.5 69t29.5 74t11 80.5q0 51 -22.5 96t-59.5 74t-82 46t-91 20q-67 -3 -124.5 -31t-94.5 -81.5t-37 -121.5zM282.5 936.5q54.5 78.5 137.5 118.5t181 45
q67 -3 132.5 -28.5t119.5 -68t87 -107.5t33 -141q0 -59 -16 -116t-42.5 -107t-59.5 -99t-71.5 -118.5t-98.5 -183.5t-69.5 -124t-14.5 -7q-6 -3 -16.5 9t-139.5 239q-66 135 -112.5 204t-75.5 147t-29 158q0 101 54.5 179.5zM414 739q0 -78 54.5 -132.5t131.5 -54.5
t131.5 54.5t54.5 132t-54.5 131.5t-132 54t-131.5 -54.5t-54 -130.5z" />
    <glyph glyph-name="uniE063" unicode="&#xe063;" 
d="M1100 500q0 -207 -146.5 -353.5t-353.5 -146.5t-353.5 146.5t-146.5 353.5q0 129 67 250t187.5 185.5t245.5 64.5q126 0 246.5 -64.5t187 -184.5t66.5 -251zM154 500q0 -185 130.5 -315.5t315.5 -130.5v892q-112 0 -219.5 -58t-167 -164t-59.5 -224z" />
    <glyph glyph-name="uniE064" unicode="&#xe064;" 
d="M228 293q0 80 29 158t75.5 147t95.5 135.5t98 150.5t75 166q17 -60 48.5 -121t65 -111.5t70.5 -101t70 -99.5t59.5 -99t42.5 -107t16 -116q0 -76 -33 -141t-87 -107.5t-119.5 -68t-132.5 -28.5q-98 5 -181 45t-137.5 118.5t-54.5 179.5zM335 299q12 -70 51 -116t116 -68
l14 84q-6 5 -15.5 14.5t-29 41t-27.5 65.5q-13 62 -12 122t8 104l8 44q-79 -94 -102 -158t-11 -133z" />
    <glyph glyph-name="uniE065" unicode="&#xe065;" 
d="M100 83v584h167l83 -167h500l83 167h167v-584h-167v167h-666v-167h-167zM311 691l33 -103h494l51 103l-78 288q-2 9 -8.5 15t-14.5 6h-375q-9 0 -15.5 -6t-8.5 -15zM334 20l32 127q2 8 9.5 14t16.5 6h416q9 0 17 -6t9 -14l32 -127q2 -8 -3 -14t-13 -6h-500q-8 0 -12.5 6
t-3.5 14z" />
    <glyph glyph-name="uniE066" unicode="&#xe066;" 
d="M100 166q0 -34 24.5 -58.5t58.5 -24.5h834q34 0 58.5 24.5t24.5 58.5v501q0 34 -24.5 58.5t-58.5 24.5h-125q-4 7 -10 18t-27.5 40t-44 51t-57.5 40t-70 18h-166q-34 0 -68.5 -17t-58.5 -41.5t-43 -49.5t-29 -42l-10 -17h-125q-34 0 -58.5 -24.5t-24.5 -58.5v-501z
M397 416.5q0 83.5 60 143.5t143 60t143 -60t60 -143.5t-60 -143.5t-143 -60t-143 60t-60 143.5zM512 416.5q0 -36.5 25.5 -62.5t62.5 -26t62.5 26t25.5 62.5t-25.5 62.5t-62.5 26t-62.5 -26t-25.5 -62.5zM850 583v84h83v-84h-83z" />
    <glyph glyph-name="uniE067" unicode="&#xe067;" 
 />
    <glyph glyph-name="uniE068" unicode="&#xe068;" 
 />
    <glyph glyph-name="uniE069" unicode="&#xe069;" 
 />
    <glyph glyph-name="uniE06A" unicode="&#xe06a;" 
d="M1201 841v-475q0 -38 -42 -38h-1121q-38 0 -38 38v475q0 32 38 32h1121q42 0 42 -32zM38 575v-57h114v57h-114zM38 833v-41q0 -8 8 -8h41q8 0 8 8v41q0 8 -8 8h-41q-8 0 -8 -8zM152 833v-41q0 -8 8 -8h41q8 0 8 8v41q0 8 -8 8h-41q-8 0 -8 -8zM228 833v-41q0 -8 8 -8h42
q7 0 7 8v41q0 8 -7 8h-42q-8 0 -8 -8zM304 833v-41q0 -8 8 -8h42q7 0 7 8v41q0 8 -7 8h-42q-8 0 -8 -8zM513 833v-41q0 -8 8 -8h41q8 0 8 8v41q0 8 -8 8h-41q-8 0 -8 -8zM380 833v-41q0 -8 8 -8h42q7 0 7 8v41q0 8 -7 8h-42q-8 0 -8 -8zM589 833v-41q0 -8 7 -8h42q8 0 8 8
v41q0 8 -8 8h-42q-7 0 -7 -8zM741 833v-41q0 -8 8 -8h42q7 0 7 8v41q0 8 -7 8h-42q-8 0 -8 -8zM665 833v-41q0 -8 7 -8h42q8 0 8 8v41q0 8 -8 8h-42q-7 0 -7 -8zM874 833v-41q0 -8 8 -8h42q7 0 7 8v41q0 8 -7 8h-42q-8 0 -8 -8zM950 833v-41q0 -8 7 -8h42q8 0 8 8v41
q0 8 -8 8h-42q-7 0 -7 -8zM1102 833v-41q0 -8 8 -8h42q7 0 7 8v41q0 8 -7 8h-42q-8 0 -8 -8zM1026 833v-41q0 -8 7 -8h42q8 0 8 8v41q0 8 -8 8h-42q-7 0 -7 -8zM38 719v-41q0 -8 8 -8h41q8 0 8 8v41q0 8 -8 8h-41q-8 0 -8 -8zM114 719v-41q0 -8 7 -8h42q8 0 8 8v41q0 8 -8 8
h-42q-7 0 -7 -8zM266 719v-41q0 -8 8 -8h41q8 0 8 8v41q0 8 -8 8h-41q-8 0 -8 -8zM190 719v-41q0 -8 7 -8h42q8 0 8 8v41q0 8 -8 8h-42q-7 0 -7 -8zM342 719v-41q0 -8 8 -8h41q8 0 8 8v41q0 8 -8 8h-41q-8 0 -8 -8zM418 719v-41q0 -8 7 -8h42q8 0 8 8v41q0 8 -8 8h-42
q-7 0 -7 -8zM570 719v-41q0 -8 8 -8h42q7 0 7 8v41q0 8 -7 8h-42q-8 0 -8 -8zM494 719v-41q0 -8 7 -8h42q8 0 8 8v41q0 8 -8 8h-42q-7 0 -7 -8zM646 719v-41q0 -8 8 -8h42q7 0 7 8v41q0 8 -7 8h-42q-8 0 -8 -8zM722 719v-41q0 -8 7 -8h42q8 0 8 8v41q0 8 -8 8h-42
q-7 0 -7 -8zM874 719v-41q0 -8 8 -8h42q7 0 7 8v41q0 8 -7 8h-42q-8 0 -8 -8zM798 719v-41q0 -8 7 -8h42q8 0 8 8v41q0 8 -8 8h-42q-7 0 -7 -8zM950 719v-41q0 -8 8 -8h42q7 0 7 8v41q0 8 -7 8h-42q-8 0 -8 -8zM1152 670q7 0 7 8v41q0 8 -7 8h-118q-8 0 -8 -8v-41q0 -8 8 -8
h118zM152 643v-41q0 -8 8 -8h41q8 0 8 8v41q0 8 -8 8h-41q-8 0 -8 -8zM228 643v-41q0 -8 7 -8h42q8 0 8 8v41q0 8 -8 8h-42q-7 0 -7 -8zM380 643v-41q0 -8 8 -8h41q8 0 8 8v41q0 8 -8 8h-41q-8 0 -8 -8zM304 643v-41q0 -8 7 -8h42q8 0 8 8v41q0 8 -8 8h-42q-7 0 -7 -8z
M456 643v-41q0 -8 8 -8h41q8 0 8 8v41q0 8 -8 8h-41q-8 0 -8 -8zM532 643v-41q0 -8 7 -8h42q8 0 8 8v41q0 8 -8 8h-42q-7 0 -7 -8zM684 643v-41q0 -8 8 -8h42q7 0 7 8v41q0 8 -7 8h-42q-8 0 -8 -8zM608 643v-41q0 -8 7 -8h42q8 0 8 8v41q0 8 -8 8h-42q-7 0 -7 -8zM760 643
v-41q0 -8 8 -8h42q7 0 7 8v41q0 8 -7 8h-42q-8 0 -8 -8zM836 643v-41q0 -8 7 -8h42q8 0 8 8v41q0 8 -8 8h-42q-7 0 -7 -8zM988 643v-41q0 -8 8 -8h42q7 0 7 8v41q0 8 -7 8h-42q-8 0 -8 -8zM912 643v-41q0 -8 7 -8h42q8 0 8 8v41q0 8 -8 8h-42q-7 0 -7 -8zM171 567v-41
q0 -8 8 -8h41q8 0 8 8v41q0 8 -8 8h-41q-8 0 -8 -8zM247 567v-41q0 -8 7 -8h42q8 0 8 8v41q0 8 -8 8h-42q-7 0 -7 -8zM399 567v-41q0 -8 8 -8h41q8 0 8 8v41q0 8 -8 8h-41q-8 0 -8 -8zM323 567v-41q0 -8 7 -8h42q8 0 8 8v41q0 8 -8 8h-42q-7 0 -7 -8zM475 567v-41q0 -8 8 -8
h41q8 0 8 8v41q0 8 -8 8h-41q-8 0 -8 -8zM551 567v-41q0 -8 7 -8h42q8 0 8 8v41q0 8 -8 8h-42q-7 0 -7 -8zM703 567v-41q0 -8 8 -8h42q7 0 7 8v41q0 8 -7 8h-42q-8 0 -8 -8zM627 567v-41q0 -8 7 -8h42q8 0 8 8v41q0 8 -8 8h-42q-7 0 -7 -8zM779 567v-41q0 -8 8 -8h42
q7 0 7 8v41q0 8 -7 8h-42q-8 0 -8 -8zM855 567v-41q0 -8 7 -8h42q8 0 8 8v41q0 8 -8 8h-42q-7 0 -7 -8zM931 567v-41q0 -8 7 -8h42q8 0 8 8v41q0 8 -8 8h-42q-7 0 -7 -8zM38 491v-41q0 -8 8 -8h41q8 0 8 8v41q0 8 -8 8h-41q-8 0 -8 -8zM114 491v-41q0 -8 7 -8h42q8 0 8 8v41
q0 8 -8 8h-42q-7 0 -7 -8zM266 491v-41q0 -8 8 -8h41q8 0 8 8v41q0 8 -8 8h-41q-8 0 -8 -8zM190 491v-41q0 -8 7 -8h42q8 0 8 8v41q0 8 -8 8h-42q-7 0 -7 -8zM342 491v-41q0 -8 8 -8h41q8 0 8 8v41q0 8 -8 8h-41q-8 0 -8 -8zM418 491v-41q0 -8 7 -8h42q8 0 8 8v41q0 8 -8 8
h-42q-7 0 -7 -8zM570 491v-41q0 -8 8 -8h42q7 0 7 8v41q0 8 -7 8h-42q-8 0 -8 -8zM494 491v-41q0 -8 7 -8h42q8 0 8 8v41q0 8 -8 8h-42q-7 0 -7 -8zM646 491v-41q0 -8 8 -8h42q7 0 7 8v41q0 8 -7 8h-42q-8 0 -8 -8zM722 491v-41q0 -8 7 -8h42q8 0 8 8v41q0 8 -8 8h-42
q-7 0 -7 -8zM874 491v-41q0 -8 8 -8h42q7 0 7 8v41q0 8 -7 8h-42q-8 0 -8 -8zM798 491v-41q0 -8 7 -8h42q8 0 8 8v41q0 8 -8 8h-42q-7 0 -7 -8zM1152 442q7 0 7 8v41q0 8 -7 8h-194q-8 0 -8 -8v-41q0 -8 8 -8h194zM1007 567v-41q0 -8 8 -8h42q7 0 7 8v41q0 8 -7 8h-42
q-8 0 -8 -8zM1160 643q0 8 -8 8h-80q-8 0 -8 -8v-41q0 -8 8 -8h12v-68q0 -8 7 -8h61q8 0 8 8v117zM38 415v-41q0 -8 8 -8h60q8 0 8 8v41q0 8 -8 8h-60q-8 0 -8 -8zM133 415v-41q0 -8 8 -8h60q8 0 8 8v41q0 8 -8 8h-60q-8 0 -8 -8zM228 415v-41q0 -8 8 -8h60q8 0 8 8v41
q0 8 -8 8h-60q-8 0 -8 -8zM798 415v-41q0 -8 8 -8h61q7 0 7 8v41q0 8 -7 8h-61q-8 0 -8 -8zM893 415v-41q0 -8 8 -8h61q7 0 7 8v41q0 8 -7 8h-61q-8 0 -8 -8zM988 415v-41q0 -8 8 -8h61q7 0 7 8v41q0 8 -7 8h-61q-8 0 -8 -8zM1083 415v-41q0 -8 8 -8h61q7 0 7 8v41q0 8 -7 8
h-61q-8 0 -8 -8zM772 366q7 0 7 8v41q0 8 -7 8h-441q-8 0 -8 -8v-41q0 -8 8 -8h441zM125 594q8 0 8 8v41q0 8 -8 8h-79q-8 0 -8 -8v-41q0 -8 8 -8h79z" />
    <glyph glyph-name="_155" horiz-adv-x="0" 
 />
    <glyph glyph-name="_156" horiz-adv-x="0" 
 />
    <glyph glyph-name="_157" horiz-adv-x="0" 
 />
    <glyph glyph-name="_158" horiz-adv-x="0" 
 />
    <glyph glyph-name="_159" horiz-adv-x="0" 
 />
    <glyph glyph-name="uniE070" unicode="&#xe070;" 
d="M282 45v910q0 19 13 32t32 13h91q19 0 32.5 -13t13.5 -32v-398l454 443v-1000l-454 444v-399q0 -19 -13.5 -32t-32.5 -13h-91q-19 0 -32 13t-13 32z" />
    <glyph glyph-name="uniE071" unicode="&#xe071;" 
d="M55 45v910q0 19 13 32t32 13h91q19 0 32.5 -13t13.5 -32v-398l454 443v-443l455 443v-1000l-455 444v-444l-454 444v-399q0 -19 -13.5 -32t-32.5 -13h-91q-19 0 -32 13t-13 32z" />
    <glyph glyph-name="uniE072" unicode="&#xe072;" 
d="M117 500l513 500v-443l454 443v-1000l-454 444v-444z" />
    <glyph glyph-name="uniE073" unicode="&#xe073;" 
d="M191 0l818 500l-818 500v-1000z" />
    <glyph glyph-name="uniE074" unicode="&#xe074;" 
d="M211 56q0 -24 14.5 -40t35.5 -16h200q21 0 35.5 16t14.5 40v888q0 24 -14.5 40t-35.5 16h-200q-21 0 -35.5 -16t-14.5 -40v-888zM689 56q0 -24 14.5 -40t35.5 -16h200q21 0 35.5 16t14.5 40v888q0 24 -14.5 40t-35.5 16h-200q-21 0 -35.5 -16t-14.5 -40v-888z" />
    <glyph glyph-name="uniE075" unicode="&#xe075;" 
d="M100 56q0 -23 16 -39.5t40 -16.5h888q24 0 40 16.5t16 39.5v888q0 24 -16 40t-40 16h-888q-24 0 -40 -16t-16 -40v-888z" />
    <glyph glyph-name="uniE076" unicode="&#xe076;" 
d="M117 0v1000l454 -443v443l513 -500l-513 -500v444z" />
    <glyph glyph-name="uniE077" unicode="&#xe077;" 
d="M55 0v1000l455 -443v443l454 -443v398q0 19 13.5 32t32.5 13h91q19 0 32 -13t13 -32v-910q0 -19 -13 -32t-32 -13h-91q-19 0 -32.5 13t-13.5 32v399l-454 -444v444z" />
    <glyph glyph-name="uniE078" unicode="&#xe078;" 
d="M282 0v1000l454 -443v398q0 19 13.5 32t32.5 13h91q19 0 32 -13t13 -32v-910q0 -19 -13 -32t-32 -13h-91q-19 0 -32.5 13t-13.5 32v399z" />
    <glyph glyph-name="uniE079" unicode="&#xe079;" 
d="M50 118v100q0 21 14.5 35.5t35.5 14.5h1000q21 0 35.5 -14.5t14.5 -35.5v-100q0 -21 -14.5 -35.5t-35.5 -14.5h-1000q-21 0 -35.5 14.5t-14.5 35.5zM50 368h1100l-550 564z" />
    <glyph glyph-name="uniE07A" unicode="&#xe07a;" 
d="M0 300h300l300 -200v800l-300 -200h-300v-400zM688 359l141 141l-141 141l71 71l141 -141l141 141l71 -71l-141 -141l141 -141l-71 -71l-141 141l-141 -141z" />
    <glyph glyph-name="uniE07B" unicode="&#xe07b;" 
d="M0 300h300l300 -200v800l-300 -200h-300v-400zM700 757l69 53q111 -135 111 -310q0 -169 -106 -302l-67 54q86 110 86 248q0 146 -93 257z" />
    <glyph glyph-name="uniE07C" unicode="&#xe07c;" 
d="M0 301v400h300l300 200v-800l-300 200h-300zM702 758l69 53q111 -135 111 -310q0 -170 -106 -303l-67 55q86 110 86 248q0 145 -93 257zM889 851l7 -8q123 -151 123 -344q0 -189 -119 -339l-7 -8l81 -66l6 8q142 178 142 405q0 230 -144 408l-6 8z" />
    <glyph glyph-name="_173" horiz-adv-x="0" 
 />
    <glyph glyph-name="uniE07E" unicode="&#xe07e;" 
d="M90 234q0 -9 6 -15t15 -6h43q9 0 15 6t6 15v255q0 108 60 197t157 137.5t208.5 48.5t208.5 -48.5t157 -137.5t60 -197v-255q0 -9 6 -15t15 -6h43q9 0 15 6t6 15v255q0 99 -42 193.5t-111.5 164t-164 111.5t-193 42t-193 -42t-164 -111.5t-111.5 -164t-42 -193.5v-255z
M260 17v392q0 6 5 11.5t12 5.5h136q7 0 12 -5.5t5 -11.5v-392q0 -7 -5 -12t-12 -5h-136q-7 0 -12 5t-5 12zM771 17v392q0 6 5 11.5t12 5.5h136q7 0 12 -5.5t5 -11.5v-392q0 -7 -5 -12t-12 -5h-136q-7 0 -12 5t-5 12z" />
    <glyph glyph-name="_175" horiz-adv-x="0" 
 />
    <glyph glyph-name="uniE080" unicode="&#xe080;" 
d="M100 500q0 136 67 251t182 182t251 67t251 -67t182 -182t67 -251t-67 -251t-182 -182t-251 -67t-251 67t-182 182t-67 251zM329 450h221v-221h100v221h221v100h-221v221h-100v-221h-221v-100z" />
    <glyph glyph-name="uniE081" unicode="&#xe081;" 
d="M100 500q0 136 67 251t182 182t251 67t251 -67t182 -182t67 -251t-67 -251t-182 -182t-251 -67t-251 67t-182 182t-67 251zM329 450h542v100h-542v-100z" />
    <glyph glyph-name="uniE082" unicode="&#xe082;" 
d="M247.5 147.5q-95.5 95.5 -130 224.5t0 257.5t130 224t224.5 130t257.5 0t224 -130t130 -224t0 -257.5t-130 -224.5t-224 -130t-257.5 0t-224.5 130zM401 230l200 200l200 -200l71 71l-200 200l200 200l-71 71l-200 -200l-200 200l-71 -71l200 -200l-200 -200z" />
    <glyph glyph-name="uniE083" unicode="&#xe083;" 
d="M600 0q-207 0 -353.5 146.5t-146.5 353.5q0 208 146.5 354t353.5 146q208 0 354 -146t146 -354q0 -207 -146 -353.5t-354 -146.5zM891 700l-18 17l-23 23l-360 -360l-162 162l-71 -71l233 -233l431 430z" />
    <glyph glyph-name="uniE084" unicode="&#xe084;" 
d="M660 319v-94q0 -8 -5 -13.5t-13 -5.5h-95q-9 0 -14 5.5t-5 13.5v94q0 9 5 14t14 5h95q8 0 13 -5t5 -14zM813 613q0 -29 -9.5 -52.5t-27.5 -40.5t-30.5 -26.5t-35.5 -21.5q-19 -10 -27.5 -16t-15.5 -14.5t-7 -17.5v-19q0 -8 -5 -13t-13 -5h-95q-9 0 -14 5t-5 13v41
q0 20 6 38t14.5 28.5t23.5 20.5t24 15t26 13q31 14 44 25t13 29q0 25 -25.5 42.5t-56.5 17.5q-34 0 -56 -16q-18 -11 -48 -49q-5 -7 -15 -7q-6 0 -10 3l-65 49q-6 4 -7 11.5t2 14.5q74 113 208 113q77 0 142 -53t65 -128zM954 146.5q146 146.5 146 353.5q0 208 -146 354
t-354 146q-207 0 -353.5 -146t-146.5 -354q0 -207 146.5 -353.5t353.5 -146.5q208 0 354 146.5z" />
    <glyph glyph-name="uniE085" unicode="&#xe085;" 
d="M100 500q0 136 67 251t182 182t251 67t251 -67t182 -182t67 -251t-67 -251t-182 -182t-251 -67t-251 67t-182 182t-67 251zM875 225q114 114 114 275t-114 275t-275 114t-275 -114t-114 -275t114 -275t275 -114t275 114zM329 450h221v-221h100v221h221v100h-221v221h-100
v-221h-221v-100z" />
    <glyph glyph-name="uniE086" unicode="&#xe086;" 
d="M100 500q0 136 67 251t182 182t251 67t251 -67t182 -182t67 -251t-67 -251t-182 -182t-251 -67t-251 67t-182 182t-67 251zM875 225q114 114 114 275t-114 275t-275 114t-275 -114t-114 -275t114 -275t275 -114t275 114zM329 450h542v100h-542v-100z" />
    <glyph glyph-name="uniE087" unicode="&#xe087;" 
d="M600 0q-207 0 -353.5 146.5t-146.5 353.5q0 208 146.5 354t353.5 146q208 0 354 -146t146 -354q0 -207 -146 -353.5t-354 -146.5zM875 225q114 114 114 275t-114 275t-275 114t-275 -114t-114 -275t114 -275t275 -114t275 114zM431 260l169 169l169 -169l71 71l-169 169
l169 169l-71 71l-169 -169l-169 169l-71 -71l169 -169l-169 -169z" />
    <glyph glyph-name="uniE088" unicode="&#xe088;" 
d="M600 0q-207 0 -353.5 146.5t-146.5 353.5q0 208 146.5 354t353.5 146q208 0 354 -146t146 -354q0 -207 -146 -353.5t-354 -146.5zM989 500q0 161 -114 275t-275 114t-275 -114t-114 -275t114 -275t275 -114t275 114t114 275zM512 405l-162 162l-71 -71l233 -233l380 380
l-71 71z" />
    <glyph glyph-name="uniE089" unicode="&#xe089;" 
d="M660 319v-94q0 -8 -5 -13.5t-13 -5.5h-95q-9 0 -14 5.5t-5 13.5v94q0 9 5 14t14 5h95q8 0 13 -5t5 -14zM813 613q0 -29 -9.5 -52.5t-27.5 -40.5t-30.5 -26.5t-35.5 -21.5q-19 -10 -27.5 -16t-15.5 -14.5t-7 -17.5v-19q0 -8 -5 -13t-13 -5h-95q-9 0 -14 5t-5 13v41
q0 20 6 38t14.5 28.5t23.5 20.5t24 15t26 13q31 14 44 25t13 29q0 25 -25.5 42.5t-56.5 17.5q-34 0 -56 -16q-18 -11 -48 -49q-5 -7 -15 -7q-6 0 -10 3l-65 49q-6 4 -7 11.5t2 14.5q74 113 208 113q77 0 142 -53t65 -128zM600 0q-207 0 -353.5 146.5t-146.5 353.5
q0 208 146.5 354t353.5 146q208 0 354 -146t146 -354q0 -207 -146 -353.5t-354 -146.5zM875 225q114 114 114 275t-114 275t-275 114t-275 -114t-114 -275t114 -275t275 -114t275 114z" />
    <glyph glyph-name="uniE08A" unicode="&#xe08a;" horiz-adv-x="1199" 
d="M730.5 983.5q128.5 -33.5 224 -129.5t130 -225t0 -257.5t-130 -224.5t-224 -130t-257.5 0t-224.5 130t-130 224.5t0 257.5t130 225t224.5 129.5t257.5 0zM833 814q-100 76 -231 76q-161 0 -275 -115q-114 -114 -114 -275q0 -131 75 -231zM370 187q100 -76 232 -76
q161 0 275 114t114 275q0 131 -76 231z" />
    <glyph glyph-name="uniE08B" unicode="&#xe08b;" 
d="M17.5 28.5q11.5 -28.5 42.5 -28.5h1083q31 0 42 29.5t-6 56.5l-538 883q-16 29 -39.5 31t-40.5 -25l-537 -891q-18 -27 -6.5 -55.5zM176 100l424 750l426 -750h-330v104h-191v-104h-329zM518 502l83 -251l84 251v83h-167v-83z" />
    <glyph glyph-name="_188" horiz-adv-x="0" 
 />
    <glyph glyph-name="_189" horiz-adv-x="0" 
 />
    <glyph glyph-name="_190" horiz-adv-x="0" 
 />
    <glyph glyph-name="_191" horiz-adv-x="0" 
 />
    <glyph glyph-name="uniE090" unicode="&#xe090;" 
d="M100 502l250 246v-165h167v167h-167l250 250l246 -250h-163v-167h167v165l250 -246l-250 -250v165h-167v-167h163l-246 -250l-250 250h167v167h-167v-165z" />
    <glyph glyph-name="uniE091" unicode="&#xe091;" 
d="M100 417v166h163q25 105 81.5 167t172.5 83v167h166v-167q45 -16 94.5 -49.5t94 -88t59.5 -112.5h169v-166h-169q-21 -85 -97 -155t-151 -98v-164h-166v164q-117 23 -173.5 86t-81.5 167h-162zM342 417q20 -61 66 -106.5t109 -65.5v172h166v-172q125 40 168 172h-168v166
h167q-21 62 -63 106t-104 64v-170h-166v170q-63 -20 -108.5 -65t-65.5 -105h174v-166h-175z" />
    <glyph glyph-name="uniE092" unicode="&#xe092;" 
d="M1100 503q0 -102 -39.5 -195.5t-106.5 -160.5t-159.5 -107t-194.5 -40t-194.5 40t-159.5 107t-106.5 160.5t-39.5 195.5q0 123 56 231.5t153.5 178t216.5 87.5v-133q-128 -26 -212 -128t-84 -236q0 -76 29.5 -145t79 -119t118 -79.5t143.5 -29.5t143.5 29.5t118 79.5
t79 119t29.5 145q0 134 -84 236t-212 128v133q119 -18 216.5 -87.5t153.5 -178t56 -231.5z" />
    <glyph glyph-name="uniE093" unicode="&#xe093;" 
d="M378 181.5q0 -31.5 -23 -54t-54 -22.5q-32 0 -54.5 22.5t-22.5 54.5q0 31 22.5 54t54 23t54.5 -23t23 -54.5zM677 58q0 -32 -22.5 -54.5t-54.5 -22.5t-54.5 22.5t-22.5 54.5t22.5 54.5t54.5 22.5t54.5 -22.5t22.5 -54.5zM254 481q0 -32 -22.5 -54.5t-54.5 -22.5
t-54.5 22.5t-22.5 54.5t22.5 54.5t54.5 22.5t54.5 -22.5t22.5 -54.5zM976 182q0 -32 -23 -54.5t-54 -22.5q-32 0 -54.5 22.5t-22.5 54t22.5 54.5t54.5 23t54.5 -23t22.5 -54zM397 780q0 -40 -28.5 -68t-68 -28t-67.5 28t-28 68t28 68t67.5 28t68 -28t28.5 -68zM1100 481
q0 -32 -22.5 -54.5t-54.5 -22.5t-54.5 22.5t-22.5 54.5t22.5 54.5t54.5 22.5t54.5 -22.5t22.5 -54.5zM715 904q0 -48 -33.5 -82t-81.5 -34t-82 34t-34 82t34 81.5t82 33.5t81.5 -33.5t33.5 -81.5zM1033 780q0 -56 -39.5 -95.5t-94.5 -39.5q-56 0 -95.5 39.5t-39.5 95.5
q0 55 39.5 94.5t95.5 39.5q55 0 94.5 -39.5t39.5 -94.5z" />
    <glyph glyph-name="uniE094" unicode="&#xe094;" 
d="M100 489.5q0 -102.5 39.5 -194.5t106.5 -159.5t159.5 -106.5t195 -39t194.5 39t159.5 106.5t106.5 159.5t39 195h-130q0 -154 -108 -262t-261.5 -108t-262 108t-108.5 261.5t108.5 262t261.5 108.5q118 0 214 -70l-127 -127h347v347l-126 -126q-136 106 -308 106
q-102 0 -194.5 -39.5t-159.5 -106.5t-106.5 -159.5t-39.5 -195z" />
    <glyph glyph-name="uniE095" unicode="&#xe095;" 
d="M100 500q0 102 39.5 194.5t106.5 159.5t159.5 106.5t194.5 39.5q172 0 308 -106l125 126v-347h-346l127 128q-97 69 -214 69q-153 0 -261.5 -108.5t-108.5 -261.5h-130zM167 -20v347h346l-127 -128q97 -69 214 -69q153 0 261.5 108.5t108.5 261.5h130
q0 -102 -39.5 -194.5t-106.5 -159.5t-159.5 -106.5t-194.5 -39.5q-172 0 -308 106z" />
    <glyph glyph-name="uniE096" unicode="&#xe096;" 
 />
    <glyph glyph-name="uniE097" unicode="&#xe097;" 
 />
    <glyph glyph-name="uniE098" unicode="&#xe098;" 
 />
    <glyph glyph-name="uniE099" unicode="&#xe099;" 
 />
    <glyph glyph-name="_202" horiz-adv-x="0" 
 />
    <glyph glyph-name="_203" 
 />
    <glyph glyph-name="_204" 
 />
    <glyph glyph-name="_205" horiz-adv-x="0" 
 />
    <glyph glyph-name="_206" horiz-adv-x="0" 
 />
    <glyph glyph-name="_207" horiz-adv-x="0" 
 />
    <glyph glyph-name="uniE100" unicode="&#xe100;" 
d="M517 417v417h111v-306h222v-111h-333zM600 0q-207 0 -353.5 146.5t-146.5 353.5q0 208 146.5 354t353.5 146q208 0 354 -146t146 -354q0 -207 -146 -353.5t-354 -146.5zM875 225q114 114 114 275t-114 275t-275 114t-275 -114t-114 -275t114 -275t275 -114t275 114z" />
    <glyph glyph-name="uniE101" unicode="&#xe101;" 
d="M100 500q0 136 67 251t182 182t251 67t251 -67t182 -182t67 -251t-67 -251t-182 -182t-251 -67t-251 67t-182 182t-67 251zM253 500q0 -144 102 -245.5t245 -101.5t245 101.5t102 245.5q0 143 -102 245t-245 102t-245 -102t-102 -245zM344 549.5q0 19.5 13 32.5t32.5 13
t33 -13.5t13.5 -32.5t-13.5 -32.5t-33.5 -13.5q-18 0 -31.5 13.5t-13.5 33zM436 713.5q0 18.5 13 32t33 13.5q18 0 31.5 -13.5t13.5 -32.5t-13.5 -32.5t-31.5 -13.5q-20 0 -33 14t-13 32.5zM531 511q0 27 17.5 47.5t43.5 24.5l102 106l1 1q-8 11 -8 23q0 19 13.5 32.5
t32.5 13.5t32.5 -13.5t13.5 -32.5t-13.5 -32.5t-32.5 -13.5q-11 0 -24 8l-46 -121q14 -19 14 -43q0 -30 -21.5 -51.5t-51.5 -21.5t-51.5 21.5t-21.5 51.5zM771 549q0 19 13.5 32.5t33 13.5t32.5 -13t13 -32.5t-13.5 -33t-32.5 -13.5t-32.5 13.5t-13.5 32.5z" />
    <glyph glyph-name="uniE102" unicode="&#xe102;" 
d="M624 251q0 -10 -7 -16.5t-16 -6.5q-10 0 -16.5 6.5t-6.5 16.5q0 9 6.5 15.5t16.5 6.5q9 0 16 -6.5t7 -15.5zM624 751q0 -9 -7 -16t-16 -7q-10 0 -16.5 7t-6.5 16t6.5 15.5t16.5 6.5q9 0 16 -6.5t7 -15.5zM850 524q10 0 16.5 -7t6.5 -16t-6.5 -16t-16.5 -7q-9 0 -15.5 7
t-6.5 16t6.5 16t15.5 7zM350 524q10 0 16.5 -7t6.5 -16t-6.5 -16t-16.5 -7q-9 0 -15.5 7t-6.5 16t6.5 16t15.5 7zM498 283q0 -9 -6.5 -15t-15.5 -6q-10 0 -17 6t-7 15q0 10 7 17t17 7q9 0 15.5 -7t6.5 -17zM498 718q0 -10 -6.5 -16.5t-15.5 -6.5q-10 0 -17 6.5t-7 16.5
q0 9 7 15.5t17 6.5q9 0 15.5 -6.5t6.5 -15.5zM406 376q0 -10 -6.5 -16.5t-15.5 -6.5t-16 6.5t-7 16.5t7 16t16 6t15.5 -6t6.5 -16zM406 626q0 -10 -6.5 -16.5t-15.5 -6.5t-16 6.5t-7 16.5q0 9 7 15.5t16 6.5t15.5 -6.5t6.5 -15.5zM749 283q0 -9 -7 -15t-17 -6q-9 0 -15.5 6
t-6.5 15q0 10 6.5 17t15.5 7q10 0 17 -7t7 -17zM749 718q0 -10 -7 -16.5t-17 -6.5q-9 0 -15.5 6.5t-6.5 16.5q0 9 6.5 15.5t15.5 6.5q10 0 17 -6.5t7 -15.5zM840 376q0 -9 -7 -16t-16 -7t-15.5 7t-6.5 16q0 10 6.5 16t15.5 6t16 -6t7 -16zM840 626q0 -10 -7 -16.5t-16 -6.5
t-15.5 6.5t-6.5 16.5q0 9 6.5 15.5t15.5 6.5t16 -6.5t7 -15.5zM314 500q0 -118 83.5 -202t202.5 -84q120 0 203.5 84t83.5 202q0 76 -38.5 144.5t-107 106t-141.5 37.5q-72 0 -140.5 -37.5t-107 -106t-38.5 -144.5zM711 1000v-29h-221v29h221zM711 949v-29h-221v29h221z
M711 898v-29h-221v29h221zM490 0v29h221v-29h-221zM490 51v29h221v-29h-221zM490 102v29h221v-29h-221zM490 803v0v44h221v-44q24 -10 48 -22q77 -42 120 -119.5t43 -161.5q0 -132 -94 -227q-53 -52 -117 -75v-45h-221v45q-64 23 -117 75q-94 95 -94 227q0 83 43.5 161
t120.5 120q23 12 47 22zM584 553v131q0 9 4 16t13 7q8 0 12 -7t4 -16v-131q13 -4 23 -14q9 -10 12 -21h73q13 0 19 -4.5t6 -12.5t-6 -13t-19 -5h-73q-3 -11 -12 -20q-17 -17 -39 -17q-23 0 -39 16t-16 39q0 22 16 38q9 10 22 14z" />
    <glyph glyph-name="uniE103" unicode="&#xe103;" 
d="M1079 479q0 -199 -140.5 -339t-340.5 -140q-196 0 -336.5 140t-140.5 339q0 124 64 240t179.5 178t233.5 62q122 0 237.5 -62t179.5 -177t64 -241zM173 479q0 -177 125 -302t301 -125q178 0 302.5 125t124.5 302q0 113 -56.5 215t-159.5 157.5t-211 55.5
q-107 0 -209.5 -55.5t-159.5 -157.5t-57 -215zM634 107q0 -15 -10.5 -24.5t-23.5 -9.5q-14 0 -24 9.5t-10 24.5q0 13 10 22.5t24 9.5q13 0 23.5 -9.5t10.5 -22.5zM634 853q0 -14 -10.5 -23.5t-23.5 -9.5q-14 0 -24 9.5t-10 23.5t10 23.5t24 9.5q13 0 23.5 -9.5t10.5 -23.5z
M972 514q15 0 24.5 -10.5t9.5 -23.5q0 -14 -9.5 -24.5t-24.5 -10.5q-14 0 -23.5 10.5t-9.5 24.5q0 13 9.5 23.5t23.5 10.5zM227 514q14 0 23.5 -10.5t9.5 -23.5q0 -14 -9.5 -24.5t-23.5 -10.5t-24 10.5t-10 24.5q0 13 10 23.5t24 10.5zM447 156q0 -13 -9.5 -23t-24.5 -10
q-14 0 -24.5 10t-10.5 23q0 14 10.5 24t24.5 10q15 0 24.5 -10t9.5 -24zM447 803q0 -14 -9.5 -24t-24.5 -10q-14 0 -24.5 10t-10.5 24q0 13 10.5 23t24.5 10q15 0 24.5 -10t9.5 -23zM310 294q0 -15 -9.5 -24.5t-23.5 -9.5t-24 9.5t-10 24.5q0 14 10 23.5t24 9.5t23.5 -9.5
t9.5 -23.5zM310 665q0 -14 -9.5 -23.5t-23.5 -9.5t-24 9.5t-10 23.5q0 15 10 24.5t24 9.5t23.5 -9.5t9.5 -24.5zM820 156q0 -13 -10 -23t-23 -10q-15 0 -25 10t-10 23q0 14 10 24t25 10q13 0 23 -10t10 -24zM820 803q0 -14 -10 -24t-23 -10q-15 0 -25 10t-10 24q0 13 10 23
t25 10q13 0 23 -10t10 -23zM957 294q0 -15 -10 -24.5t-25 -9.5q-14 0 -23.5 9.5t-9.5 24.5q0 14 9.5 23.5t23.5 9.5q15 0 25 -9.5t10 -23.5zM957 665q0 -14 -10 -23.5t-25 -9.5q-14 0 -23.5 9.5t-9.5 23.5q0 15 9.5 24.5t23.5 9.5q15 0 25 -9.5t10 -24.5zM574 546v191
q0 14 7 24t19 10t18.5 -10t6.5 -24v-191q13 -5 25 -16q21 -21 21 -50q0 -30 -21 -50.5t-50 -20.5t-50 20.5t-21 50.5q0 29 21 50q11 11 24 16zM787 956l15 26q6 10 16 13q15 4 38 -9l76 -44q22 -12 26 -26q3 -11 -3 -22l-16 -26zM254 867l-16 26q-16 26 21 49l74 47
q38 23 55 -3l15 -25z" />
    <glyph glyph-name="uniE104" unicode="&#xe104;" 
d="M636 112q0 -15 -11 -25.5t-25 -10.5t-24.5 10.5t-10.5 25.5q0 14 10.5 24t24.5 10t25 -10t11 -24zM670 527h203q15 0 25 -7t10 -21q0 -11 -10 -18.5t-25 -7.5h-203q-6 -14 -17 -25q-22 -22 -53 -22t-52.5 21.5t-21.5 53.5q0 30 21.5 52t52.5 22t53 -22q11 -12 17 -26z
M973 694q0 -15 -10.5 -25t-24.5 -10q-15 0 -25.5 10t-10.5 25t10.5 24.5t25.5 9.5q14 0 24.5 -9.5t10.5 -24.5zM973 306q0 -14 -10.5 -24t-24.5 -10q-15 0 -25.5 10t-10.5 24q0 15 10.5 25t25.5 10q14 0 24.5 -10t10.5 -25zM830 838q0 -15 -10.5 -25.5t-24.5 -10.5
q-15 0 -25.5 10.5t-10.5 25.5q0 14 10.5 24t25.5 10q14 0 24.5 -10t10.5 -24zM830 163q0 -15 -10.5 -25t-24.5 -10q-15 0 -25.5 10t-10.5 25t10.5 25t25.5 10q14 0 24.5 -10t10.5 -25zM298 694q0 -15 -10 -25t-25 -10t-25 10t-10 25t10 24.5t25 9.5t25 -9.5t10 -24.5z
M298 306q0 -15 -10 -24.5t-25 -9.5t-25 9.5t-10 24.5t10 25t25 10t25 -10t10 -25zM441 838q0 -15 -10.5 -25.5t-25.5 -10.5q-14 0 -25 10.5t-11 25.5q0 14 11 24t25 10q15 0 25.5 -10t10.5 -24zM441 163q0 -15 -10.5 -25t-25.5 -10q-14 0 -25 10t-11 25t11 25t25 10
q15 0 25.5 -10t10.5 -25zM211 536q15 0 25 -11t10 -24q0 -15 -10 -25.5t-25 -10.5q-14 0 -24.5 10.5t-10.5 25.5q0 13 10.5 24t24.5 11zM988 536q15 0 25.5 -11t10.5 -24q0 -15 -10.5 -25.5t-25.5 -10.5q-14 0 -24 10.5t-10 25.5q0 13 10 24t24 11zM636 889q0 -15 -11 -25
t-25 -10t-24.5 10t-10.5 25q0 14 10.5 24.5t24.5 10.5t25 -10.5t11 -24.5zM154 499q0 -184 130.5 -314.5t314.5 -130.5q186 0 316 130.5t130 314.5q0 119 -59 225t-166 164t-221 58q-111 0 -218.5 -58t-167 -164t-59.5 -225zM1100 499q0 -206 -146.5 -352.5t-355.5 -146.5
q-205 0 -351.5 146.5t-146.5 352.5q0 130 67 251t187.5 185.5t243.5 64.5q128 0 248.5 -64.5t187 -185t66.5 -251.5z" />
    <glyph glyph-name="uniE105" unicode="&#xe105;" 
d="M142 42q0 -17 12 -29.5t30 -12.5h833q18 0 30 12.5t12 29.5v625h-917v-625zM142 750h917v125q0 18 -12 30t-30 12h-125v83h-83v-83h-417v83h-83v-83h-125q-18 0 -30 -12t-12 -30v-125zM225 83v84h84v-84h-84zM225 250v83h84v-83h-84zM225 417v83h84v-83h-84zM392 83v84
h83v-84h-83zM392 250v83h83v-83h-83zM392 417v83h83v-83h-83zM559 83v84h83v-84h-83zM559 250v83h83v-83h-83zM559 417v83h83v-83h-83zM726 83v84h83v-84h-83zM726 250v83h83v-83h-83zM726 417v83h83v-83h-83zM892 83v84h84v-84h-84zM892 250v83h84v-83h-84zM892 417v83h84
v-83h-84z" />
    <glyph glyph-name="uniE106" unicode="&#xe106;" 
 />
    <glyph glyph-name="uniE107" unicode="&#xe107;" 
 />
    <glyph glyph-name="uniE108" unicode="&#xe108;" 
d="M299 921q-7 -14 -20 -63.5t-15 -105t16.5 -146.5t60.5 -188q43 -98 98 -177t102.5 -121.5t89.5 -72t66 -38.5l25 -9l186 56q19 6 25 22t-4 31l-100 146q-10 15 -31 21.5t-40 0.5l-134 -41q-74 108 -126.5 228t-79.5 243l135 41q19 6 30.5 21t7.5 32l-38 169
q-4 16 -20.5 25t-36.5 2l-185 -55q-5 -7 -12 -21z" />
    <glyph glyph-name="uniE109" unicode="&#xe109;" 
d="M598 851h4q266 -8 379 -79q119 -76 119 -154q-16 -71 -62 -71q-2 0 -5 1l-179 64q-26 8 -26 28q0 9 5 21q30 32 30 47q0 10 -15 12h-495q-15 -2 -15 -12q0 -15 30 -47q5 -12 5 -21q0 -20 -27 -28l-178 -64q-4 -1 -6 -1q-46 0 -62 71q0 78 120 154q113 70 378 79zM704 627
v33h64v-67q0 -34 106 -59q101 -42 101 -168v-217h-750v217q0 126 102 168q106 25 106 59v67h64v-33h207zM421 385q0 -74 52 -126t125 -52q74 0 125.5 52t51.5 126q0 73 -51.5 125.5t-125.5 52.5t-125.5 -52.5t-51.5 -125.5zM697 385q0 -41 -29 -70t-70 -29t-70 29t-29 70
q0 42 29 71t70 29t70 -29t29 -71zM627 525q0 -9 -7 -16.5t-18 -7.5q-10 0 -17 7.5t-7 16.5q0 11 7 18.5t17 7.5q11 0 18 -7.5t7 -18.5zM627 247q0 -10 -7 -17.5t-18 -7.5q-10 0 -17 7.5t-7 17.5t7 17.5t17 7.5q11 0 18 -7.5t7 -17.5zM541 514q4 -6 4 -15v-3q-2 -11 -10 -17
q-7 -5 -15 -5q-2 0 -3 1q-10 1 -16 9q-5 8 -5 14v5q2 10 10 17q7 4 15 4h4q10 -1 16 -10zM703 289q5 -7 5 -15v-4q-1 -10 -10 -17q-6 -4 -14 -4q-2 0 -4 1q-10 1 -17 9q-5 8 -5 15q0 2 1 4q1 9 10 16q7 5 15 5q2 0 4 -1q10 -1 15 -9zM478 453q10 -3 15 -12q2 -6 2 -11
q0 -4 -2 -8q-2 -10 -11 -15q-7 -2 -13 -2q-3 0 -6 1q-10 2 -15 12q-3 6 -3 12q0 4 1 7q3 10 12 15q6 3 11 3q4 0 9 -2zM742 367q10 -3 14 -12q2 -6 2 -11v-8q-4 -10 -13 -14q-5 -3 -10 -3q-4 0 -9 1q-9 3 -13 12q-4 6 -4 12q0 3 1 8q4 10 13 14q5 2 11 2q4 0 8 -1zM463 367
q4 1 7 1q6 0 12 -2q9 -4 11 -14q2 -5 2 -9q0 -6 -2 -11q-5 -9 -15 -13q-4 -1 -7 -1q-7 0 -13 4q-9 4 -12 14q-1 3 -1 6q0 6 3 13q5 9 15 12zM726 453q4 2 8 2q6 0 11 -3q9 -5 13 -15v-7q0 -6 -2 -11q-4 -10 -14 -13q-4 -1 -8 -1q-6 0 -11 2q-10 5 -13 15q-1 4 -1 8q0 5 4 11
q4 9 13 12zM501 289q6 8 16 9h4q7 0 14 -4q8 -7 10 -17q1 -2 1 -4q0 -8 -5 -14q-6 -8 -16 -9q-2 -1 -5 -1q-7 0 -14 4q-8 7 -10 17v5q0 7 5 14zM663 514q7 9 17 10h4q8 0 14 -4q9 -7 10 -17v-3q0 -8 -5 -16t-15 -9q-2 -1 -4 -1q-8 0 -15 5q-9 6 -10 17q-1 1 -1 3q0 9 5 15z
" />
    <glyph glyph-name="uniE10A" unicode="&#xe10a;" 
d="M489 600v33h-45v-57q0 -40 -110 -66q-94 -38 -94 -158v-185h720v185q0 120 -94 158q-110 26 -110 66v57h-45v-33h-222zM693 618v33h80v-75q0 -26 99 -48q106 -45 106 -176v-203h-755v203q0 131 106 176q98 22 98 48v75h81v-33h185zM609 564q74 0 125.5 -52.5t51.5 -126.5
q0 -73 -51.5 -125.5t-125.5 -52.5q-73 0 -125 52.5t-52 125.5q0 74 51.5 126.5t125.5 52.5zM609 486q-41 0 -70 -29t-29 -71q0 -41 29 -70.5t70 -29.5t70 29.5t29 70.5q0 42 -29 71t-70 29zM613 552q-10 0 -17.5 -7t-7.5 -18q0 -10 7.5 -17.5t17.5 -7.5t17.5 7.5t7.5 17.5
q0 11 -7.5 18t-17.5 7zM613 272q-10 0 -17.5 -7t-7.5 -18q0 -10 7.5 -17.5t17.5 -7.5t17.5 7.5t7.5 17.5q0 11 -7.5 18t-17.5 7zM536 525h-4q-9 0 -15 -4q-9 -7 -10 -17v-4q0 -8 5 -15q6 -8 16 -9q1 -1 3 -1q8 0 15 5q8 6 10 17v3q0 8 -4 15q-6 8 -16 10zM699 299h-4
q-8 0 -15 -4q-8 -7 -10 -17v-4q0 -7 4 -14q7 -9 17 -10q2 -1 4 -1q8 0 14 5q9 6 11 17v3q0 8 -6 15q-5 8 -15 10zM488 454q-4 1 -8 1q-5 0 -11 -3q-9 -4 -12 -14q-1 -3 -1 -7q0 -6 3 -12q4 -10 14 -13q4 -1 7 -1q6 0 13 3q9 5 11 14q2 5 2 9q0 5 -3 11q-5 9 -15 12zM753 367
q-4 2 -8 2q-5 0 -11 -2q-9 -5 -12 -15q-2 -4 -2 -8q0 -6 3 -11q5 -9 15 -12q4 -2 8 -2q6 0 11 3q9 5 11 14q2 4 2 8q0 6 -2 12q-5 9 -15 11zM459 356q-3 -7 -3 -13q0 -3 1 -7q3 -9 12 -14q6 -3 13 -3q3 0 7 1q9 3 14 12q3 6 3 12q0 3 -2 8q-2 10 -11 15q-6 2 -12 2
q-3 0 -8 -2q-10 -2 -14 -11zM723 442q-3 -6 -3 -11q0 -4 2 -9q2 -9 12 -14q6 -2 12 -2q3 0 7 1q10 3 15 13q2 5 2 11q0 3 -2 7q-2 10 -11 14q-6 3 -11 3q-4 0 -8 -1q-10 -3 -15 -12zM512 289q-5 -7 -5 -14v-4q1 -11 10 -17q6 -5 14 -5q2 0 5 1q10 1 16 10q5 6 5 13q0 3 -1 4
q-2 11 -10 18q-7 4 -14 4h-4q-10 -2 -16 -10zM674 515q-4 -7 -4 -15v-3q2 -11 10 -17q7 -5 15 -5q2 0 4 1q10 1 15 9q6 7 6 16v3q-2 10 -11 17q-6 4 -14 4h-4q-10 -2 -17 -10zM231 760q-113 -69 -113 -137q14 -59 50 -59h5l175 61q20 6 20 20q0 6 -4 13q-33 34 -33 51
q0 15 26 19h486q26 -4 26 -19q0 -17 -33 -51q-3 -8 -3 -13q0 -14 20 -20l174 -61h5q37 0 51 59q0 68 -114 137q-109 66 -367 73h-4q-258 -8 -367 -73zM598 851h4q263 -8 376 -77q122 -73 122 -153q-17 -74 -69 -74q-4 0 -8 1l-176 60q-33 10 -33 34q0 11 8 26q26 28 26 36
q0 5 -5 5h-485q-6 0 -6 -4q0 -9 27 -37q7 -15 7 -26q0 -24 -33 -34l-176 -60q-4 -1 -8 -1q-51 0 -69 74q0 80 122 153q113 69 376 77z" />
    <glyph glyph-name="uniE10B" unicode="&#xe10b;" 
d="M267 83v795q0 17 25 38t67.5 40t107.5 31.5t136 12.5t135 -12.5t106 -31.5t66 -40t24 -38v-795q0 -34 -24.5 -58.5t-58.5 -24.5h-501q-34 0 -58.5 24.5t-24.5 58.5zM350 250h501v583h-501v-583zM514 125q0 -36 25.5 -61.5t61 -25.5t61 25.5t25.5 61.5t-25.5 61.5
t-61 25.5t-61 -25.5t-25.5 -61.5z" />
    <glyph glyph-name="_220" horiz-adv-x="0" 
 />
    <glyph glyph-name="_221" horiz-adv-x="0" 
 />
    <glyph glyph-name="_222" horiz-adv-x="0" 
 />
    <glyph glyph-name="_223" horiz-adv-x="0" 
 />
    <glyph glyph-name="uniE110" unicode="&#xe110;" 
d="M14 165v167h217l502 502h202v166l251 -247l-251 -251v165h-133l-503 -502h-285zM14 667h217l102 -102l118 119l-152 150h-285v-167zM582 316l118 119l102 -103h133v166l251 -247l-251 -251v165h-202z" />
    <glyph glyph-name="uniE111" unicode="&#xe111;" 
d="M0 613l225 213l225 -213h-152v-301h289l162 -150h-602v451h-147zM451 839l162 -150h286v-301h-149l225 -213l225 213h-150v451h-599z" />
    <glyph glyph-name="uniE112" unicode="&#xe112;" 
d="M100 0v333l108 -107l166 167l119 -119l-167 -166l107 -108h-333zM100 667l108 107l166 -166l119 118l-167 167l107 107h-333v-333zM708 274l118 119l167 -167l107 107v-333h-333l107 108zM708 726l166 167l-107 107h333v-333l-107 107l-167 -166z" />
    <glyph glyph-name="uniE113" unicode="&#xe113;" 
d="M100 0v333l108 -107l245 245l118 -118l-245 -245l107 -108h-333zM629 648l119 -119l245 245l107 -107v333h-333l107 -107z" />
    <glyph glyph-name="uniE114" unicode="&#xe114;" 
d="M100 125l261 260l-114 115h353v-354l-114 115l-261 -261zM600 500v353l114 -114l261 261l125 -125l-261 -260l114 -115h-353z" />
    <glyph glyph-name="uniE115" unicode="&#xe115;" 
d="M352 250h165v500h-165l249 250l248 -250h-165v-500h165l-248 -250z" />
    <glyph glyph-name="uniE116" unicode="&#xe116;" 
d="M100 500l250 248v-165h500v165l250 -248l-250 -248v164h-500v-164z" />
    <glyph glyph-name="uniE117" unicode="&#xe117;" 
d="M102 250l248 -250l249 250h-165v750h-167v-750h-165zM602 750l249 250l248 -250h-165v-750h-167v750h-165z" />
    <glyph glyph-name="uniE118" unicode="&#xe118;" 
d="M809 0l-248 250h164v333h167v-333h165zM476 83h-167v84h167v-84zM476 250h-167v83h167v-83zM476 417h-167v333h-165l248 250l248 -250h-164v-333zM892 667h-167v83h167v-83zM892 833v84h-167v-84h167z" />
    <glyph glyph-name="uniE119" unicode="&#xe119;" 
d="M100 498l500 377v-250h500v-249h-500v-251z" />
    <glyph glyph-name="uniE11A" unicode="&#xe11a;" 
d="M100 376v249h500v250l500 -377l-500 -373v251h-500z" />
    <glyph glyph-name="uniE11B" unicode="&#xe11b;" 
d="M225 500l378 500l372 -500h-250v-500h-252v500h-248z" />
    <glyph glyph-name="uniE11C" unicode="&#xe11c;" 
d="M225 500h248v500h252v-500h250l-377 -500z" />
    <glyph glyph-name="uniE11D" unicode="&#xe11d;" 
d="M100 126q5 110 34 198.5t86.5 160.5t153.5 115t226 49v226l500 -377l-500 -373v251q-79 -2 -152.5 -17t-141.5 -43.5t-122.5 -77t-83.5 -112.5z" />
    <glyph glyph-name="_238" horiz-adv-x="0" 
 />
    <glyph glyph-name="_239" horiz-adv-x="0" 
 />
    <glyph glyph-name="uniE120" unicode="&#xe120;" 
d="M0 50h200v600h-200v-600zM300 125q0 -75 100 -75h61q124 -100 139 -100h250q46 0 83 57l238 344q29 31 29 74v100q0 44 -30.5 84.5t-69.5 40.5h-328q28 118 28 125v150q0 44 -30.5 84.5t-69.5 40.5h-50q-27 0 -51 -20t-38 -48l-96 -198l-145 -196q-20 -26 -20 -63v-400z
M400 150v375l150 213l100 212h50v-175l-50 -225h450v-125l-250 -375h-214l-136 100h-100z" />
    <glyph glyph-name="uniE121" unicode="&#xe121;" 
d="M0 350v600h200v-600h-200zM300 475v400q0 75 100 75h61q124 100 139 100h250q46 0 83 -57l238 -344q29 -31 29 -74v-100q0 -44 -30.5 -84.5t-69.5 -40.5h-328q28 -118 28 -125v-150q0 -44 -30.5 -84.5t-69.5 -40.5h-50q-27 0 -51 20t-38 48l-96 198l-145 196
q-20 26 -20 63zM400 475l150 -212l100 -213h50v175l-50 225h450v125l-250 375h-214l-136 -100h-100v-375z" />
    <glyph glyph-name="uniE122" unicode="&#xe122;" 
d="M0 99v595h198v-595h-198zM297 173v521q0 17 14 35t28 28l14 9l358 228q14 6 25 6q17 0 29 -12l108 -111q14 -14 14 -34q0 -17 -11 -31l-84 -120h299q84 0 137 -38t53 -109t-54 -110t-137 -39h-106l-129 -336q-7 -21 -20.5 -40.5t-28.5 -19.5h-337q-7 0 -89.5 80.5
t-82.5 92.5zM396 187l99 -88h291l129 336q6 21 19.5 41t28.5 20h201q16 0 25 14.5t9 35.5q0 20 -9 34.5t-25 14.5h-453h-6.5h-7.5t-6 0.5t-5.5 1t-5 1.5t-5.5 2.5t-4 4t-4 5.5q-5 11 -5 19q0 14 10 27l145 181l-85 83l-336 -234v-499z" />
    <glyph glyph-name="uniE123" unicode="&#xe123;" 
d="M1002 99v595h198v-595h-198zM820.5 80.5q-82.5 -80.5 -89.5 -80.5h-337q-15 0 -28.5 19.5t-20.5 40.5l-129 336h-106q-83 0 -137 39t-54 110t53 109t137 38h299l-84 120q-11 14 -11 31q0 20 14 34l108 111q12 12 29 12q11 0 25 -6l358 -228l14 -9q14 -10 28 -28t14 -35
v-521q0 -12 -82.5 -92.5zM804 686l-336 234l-85 -83l145 -181q10 -13 10 -27q0 -8 -5 -19q-2 -3 -4 -5.5t-4 -4t-5.5 -2.5t-5 -1.5t-5.5 -1t-6 -0.5h-7.5h-6.5h-453q-16 0 -25 -14.5t-9 -34.5q0 -21 9 -35.5t25 -14.5h201q15 0 28.5 -20t19.5 -41l129 -336h291l99 88v499z
" />
    <glyph glyph-name="uniE124" unicode="&#xe124;" 
d="M107 612l228 -360q4 -6 10.5 -15t25.5 -24.5t36 -15.5h520q13 0 93 82t80 89v339q0 15 -19.5 28t-40.5 19l-336 130v105q0 83 -38.5 137.5t-110 54.5t-109 -53t-37.5 -137v-299l-120 83q-15 12 -33 11.5t-32 -13.5l-111 -109q-22 -22 -6 -52zM181 632l82 85l182 -145
q21 -18 46 -5q3 1 5.5 3.5l4 4t2.5 5t1.5 5.5t1 6.5t0.5 6.5v7.5v6.5v451q0 22 25 31t49.5 -0.5t24.5 -30.5v-200q0 -16 20 -29t40 -19l336 -129v-291l-88 -99h-498zM407 -100v198h594v-198h-594z" />
    <glyph glyph-name="uniE125" unicode="&#xe125;" 
d="M107 388q-16 -30 6 -52l111 -109q13 -13 31.5 -13.5t33.5 10.5l120 84q0 -50 -0.5 -151.5t-0.5 -147.5q0 -83 38 -136.5t109.5 -53.5t110 54.5t38.5 137.5v105l336 130q20 6 40 19t20 28v339q0 7 -80 89t-93 82h-520q-17 0 -35 -14t-28 -28l-10 -14zM181 368l234 336h498
l88 -99v-291l-336 -129q-20 -6 -40 -19.5t-20 -28.5v-200q0 -22 -24.5 -31t-49.5 0t-25 31v451v14.5t-1.5 11.5t-5 12t-9.5 7q-24 13 -45 -5l-183 -145zM407 902v198h594v-198h-594z" />
    <glyph glyph-name="uniE126" unicode="&#xe126;" 
 />
    <glyph glyph-name="uniE127" unicode="&#xe127;" 
 />
    <glyph glyph-name="uniE128" unicode="&#xe128;" 
 />
    <glyph glyph-name="uniE129" unicode="&#xe129;" 
 />
    <glyph glyph-name="_250" 
 />
    <glyph glyph-name="_251" horiz-adv-x="0" 
 />
    <glyph glyph-name="_252" horiz-adv-x="0" 
 />
    <glyph glyph-name="_253" horiz-adv-x="0" 
 />
    <glyph glyph-name="_254" horiz-adv-x="0" 
 />
    <glyph glyph-name="_255" horiz-adv-x="0" 
 />
    <glyph glyph-name="uniE130" unicode="&#xe130;" 
d="M100 500q0 102 39.5 194.5t106.5 159.5t159.5 106.5t194.5 39.5q136 0 251 -67t182 -182.5t67 -251t-67 -250.5t-182 -182t-250.5 -67t-251 67t-182.5 182t-67 251zM345 587l2 -169h251l-2 -162l337 246l-337 249v-164h-251z" />
    <glyph glyph-name="uniE131" unicode="&#xe131;" 
d="M100 500q0 102 39.5 194.5t106.5 159.5t159.5 106.5t194.5 39.5t194.5 -39.5t159.5 -106.5t106.5 -159.5t39.5 -194.5q0 -136 -67 -251t-182.5 -182t-251 -67t-250.5 67t-182 182t-67 251zM267 502l337 -246l-2 162h251l2 169h-251v164z" />
    <glyph glyph-name="uniE132" unicode="&#xe132;" 
d="M100 500q0 102 39.5 194.5t106.5 159.5t159.5 106.5t194.5 39.5q136 0 251 -67t182 -182.5t67 -251t-67 -250.5t-182 -182t-250.5 -67t-251 67t-182.5 182t-67 251zM347 502h167v-251h168v251h167l-251 335z" />
    <glyph glyph-name="uniE133" unicode="&#xe133;" 
d="M100 500q0 102 39.5 194.5t106.5 159.5t159.5 106.5t194.5 39.5q136 0 251 -67t182 -182.5t67 -251t-67 -250.5t-182 -182t-250.5 -67t-251 67t-182.5 182t-67 251zM347 502l251 -335l251 335h-167v251h-168v-251h-167z" />
    <glyph glyph-name="uniE134" unicode="&#xe134;" 
d="M600 708v-125h250v-166h-250v-125l-250 208zM100 500q0 208 146.5 354t353.5 146q208 0 354 -146t146 -354q0 -207 -146 -353.5t-354 -146.5q-207 0 -353.5 146.5t-146.5 353.5zM325 225q114 -114 275 -114t275 114t114 275t-114 275t-275 114t-275 -114t-114 -275
t114 -275z" />
    <glyph glyph-name="uniE135" unicode="&#xe135;" 
d="M600 708l250 -208l-250 -208v125h-250v166h250v125zM100 500q0 208 146.5 354t353.5 146q208 0 354 -146t146 -354q0 -207 -146 -353.5t-354 -146.5q-207 0 -353.5 146.5t-146.5 353.5zM325 225q114 -114 275 -114t275 114t114 275t-114 275t-275 114t-275 -114
t-114 -275t114 -275z" />
    <glyph glyph-name="uniE136" unicode="&#xe136;" 
d="M392 500h125v250h166v-250h125l-208 -250zM600 0q-207 0 -353.5 146.5t-146.5 353.5q0 208 146.5 354t353.5 146q208 0 354 -146t146 -354q0 -207 -146 -353.5t-354 -146.5zM875 225q114 114 114 275t-114 275t-275 114t-275 -114t-114 -275t114 -275t275 -114t275 114z
" />
    <glyph glyph-name="uniE137" unicode="&#xe137;" 
d="M392 500l208 250l208 -250h-125v-250h-166v250h-125zM600 0q-207 0 -353.5 146.5t-146.5 353.5q0 208 146.5 354t353.5 146q208 0 354 -146t146 -354q0 -207 -146 -353.5t-354 -146.5zM875 225q114 114 114 275t-114 275t-275 114t-275 -114t-114 -275t114 -275t275 -114
t275 114z" />
    <glyph glyph-name="uniE138" unicode="&#xe138;" 
 />
    <glyph glyph-name="uniE139" unicode="&#xe139;" 
 />
    <glyph glyph-name="_266" horiz-adv-x="0" 
 />
    <glyph glyph-name="_267" horiz-adv-x="0" 
 />
    <glyph glyph-name="_268" horiz-adv-x="0" 
 />
    <glyph glyph-name="_269" horiz-adv-x="0" 
 />
    <glyph glyph-name="_270" horiz-adv-x="0" 
 />
    <glyph glyph-name="_271" horiz-adv-x="0" 
 />
    <glyph glyph-name="uniE140" unicode="&#xe140;" 
d="M500 508v-17q6 -95 72.5 -159.5t162.5 -64.5q98 0 165 69t67 172q0 186 -138.5 322.5t-328.5 136.5q-194 0 -324 -130t-143 -338q16 115 75.5 174.5t158.5 59.5q96 0 162 -64.5t71 -160.5zM801 499q0 -27 -20 -46.5t-46 -19.5q-28 0 -48.5 19.5t-20.5 46.5
q0 28 20.5 48.5t48.5 20.5q27 0 46.5 -20.5t19.5 -48.5zM334 499q0 28 -20 48.5t-47 20.5q-28 0 -47 -20.5t-19 -48.5q0 -27 19 -46.5t47 -19.5q27 0 47 20t20 46zM1000 499q0 -207 -146 -353t-354 -146q-207 0 -353.5 146t-146.5 353q0 208 146.5 354.5t353.5 146.5
q208 0 354 -146.5t146 -354.5z" />
    <glyph glyph-name="uniE141" unicode="&#xe141;" 
d="M162 292q0 17 11.5 29t27.5 12h15l98 145l52 272q13 64 63.5 116.5t120.5 69.5l-15 27q-5 15 2.5 26t23.5 11h79q16 0 23.5 -8.5t2.5 -24.5q-15 -30 -15 -31q70 -16 120.5 -69t63.5 -117l52 -272l99 -145h14q16 0 27.5 -12t11.5 -29t-11 -33.5t-26 -22.5
q-6 -3 -18.5 -7.5t-54.5 -16.5t-86 -20.5t-110.5 -16t-131.5 -7.5q-105 0 -205.5 17t-148.5 33l-48 17q-15 6 -26 23t-11 34zM515 92q10 -41 33 -66.5t52.5 -25.5t52.5 25.5t33 66.5q-40 -5 -85.5 -5t-85.5 5z" />
    <glyph glyph-name="uniE142" unicode="&#xe142;" 
d="M125 1050h50q10 0 17.5 -7.5t7.5 -17.5v-1075h-100v1075q0 10 7.5 17.5t17.5 7.5zM1075 1002q4 0 9 -2q16 -6 16 -23v-421q0 -6 -3 -12q-33 -59 -66.5 -99t-65.5 -58t-56.5 -24.5t-52.5 -6.5q-26 0 -57.5 6.5t-52.5 13.5t-60 21q-41 15 -63 22.5t-57.5 15t-65.5 7.5
q-85 0 -160 -57q-7 -5 -15 -5q-6 0 -11 3q-14 7 -14 22v438q22 55 82 98.5t119 46.5q23 2 43 0.5t43 -7t32.5 -8.5t38 -13t32.5 -11q41 -14 63.5 -21t57 -14t63.5 -7q103 0 183 87q7 8 18 8z" />
    <glyph glyph-name="uniE143" unicode="&#xe143;" 
d="M50.5 277q-11.5 -83 30.5 -152q31 -50 82.5 -78t113.5 -28q55 0 104 25q29 14 57 35.5t46 40t52 55.5q35 39 50 54l345 345q31 31 41.5 74t-2.5 84q-24 76 -103 91q-17 2 -25 2q-41 0 -69.5 -14.5t-58.5 -45.5l-341 -347l-6 -6l60 -59l331 327q17 19 34 33q20 21 44 21
q33 0 46 -32q14 -34 -18 -66l-479 -479q-45 -46 -109 -46q-48 0 -87.5 29t-47.5 84q-4 31 2.5 58t27.5 55t36.5 44t49.5 48q21 18 38 36l305 305q45 45 72 69t74 47.5t94 23.5q22 0 42 -4q83 -15 135 -83t45 -153q-7 -89 -86 -169l-221 -218l-222 -224l6 -6l61 -53l453 448
q58 59 82.5 137.5t10.5 160.5q-14 76 -59 135t-114 90q-60 29 -133 29q-94 0 -173 -48q-35 -21 -97 -83l-448 -449q-60 -60 -71.5 -143z" />
    <glyph glyph-name="uniE144" unicode="&#xe144;" 
d="M100 273q0 -87 61 -146l130 -131q62 -61 146 -61q86 0 146 61l261 260q61 61 61 147t-61 146l-130 130q-7 8 -17 16l-97 -97l195 -195l-358 -358l-227 228l87 88l-17 16q-42 42 -69 93l-50 -51q-61 -60 -61 -146zM295 598q0 -86 61 -146l130 -130q6 -7 17 -16l97 97
l-195 195l358 358l227 -227l-87 -89l17 -15q43 -45 70 -92l27 26q32 33 57.5 81.5t25.5 88.5q0 86 -61 146l-130 130q-60 61 -146 61q-87 0 -146 -61l-261 -260q-61 -59 -61 -147z" />
    <glyph glyph-name="uniE145" unicode="&#xe145;" 
d="M100 135.5q0 17.5 13 31.5l500 499q-28 85 4.5 168.5t112.5 128.5q137 77 255 -7l-216 -115l121 -194l209 105q11 -146 -126 -222q-102 -59 -210 -20l-497 -497q-13 -13 -30.5 -13t-30.5 13l-92 92q-13 13 -13 30.5z" />
    <glyph glyph-name="uniE146" unicode="&#xe146;" 
d="M100 0l253 317l172 173l-175 177h250l223 232l-30 30q-12 12 -12 29.5t12 29.5t29.5 12t29.5 -12l236 -235q12 -13 12 -30.5t-12 -29.5t-29.5 -12t-29.5 12l-30 30l-232 -223v-250l-177 175l-173 -172z" />
    <glyph glyph-name="uniE147" unicode="&#xe147;" horiz-adv-x="0" 
 />
    <glyph glyph-name="uniE148" unicode="&#xe148;" 
 />
    <glyph glyph-name="uniE149" unicode="&#xe149;" 
 />
    <glyph glyph-name="_282" 
 />
    <glyph glyph-name="_283" horiz-adv-x="0" 
 />
    <glyph glyph-name="_284" horiz-adv-x="0" 
 />
    <glyph glyph-name="_285" horiz-adv-x="0" 
 />
    <glyph glyph-name="_286" horiz-adv-x="0" 
 />
    <glyph glyph-name="_287" horiz-adv-x="0" 
 />
    <glyph glyph-name="uniE150" unicode="&#xe150;" 
d="M912 1032l-488 -533l488 -532l-74 -67l-549 600l548 600z" />
    <glyph glyph-name="uniE151" unicode="&#xe151;" 
d="M363 1100l549 -600l-549 -600l-74 67l488 532l-488 533z" />
    <glyph glyph-name="uniE152" unicode="&#xe152;" 
d="M1133 188l-533 488l-533 -488l-67 74l600 549l600 -548z" />
    <glyph glyph-name="uniE153" unicode="&#xe153;" 
d="M1200 737l-600 -549l-600 550l67 73l533 -487l533 487z" />
    <glyph glyph-name="uniE154" unicode="&#xe154;" 
d="M793 1032l-488 -533l488 -532l-74 -67l-549 600l548 600zM1031 1032l-488 -533l488 -532l-74 -67l-549 600l548 600z" />
    <glyph glyph-name="uniE155" unicode="&#xe155;" 
d="M482 1100l549 -600l-549 -600l-74 67l488 532l-488 533zM244 1100l549 -600l-549 -600l-74 67l488 532l-488 533z" />
    <glyph glyph-name="uniE156" unicode="&#xe156;" 
d="M1133 307l-533 488l-533 -488l-67 74l600 549l600 -548zM1133 69l-533 488l-533 -488l-67 74l600 549l600 -548z" />
    <glyph glyph-name="uniE157" unicode="&#xe157;" 
d="M1200 618l-600 -549l-600 550l67 73l533 -487l533 487zM1200 856l-600 -549l-600 550l67 73l533 -487l533 487z" />
    <glyph glyph-name="uniE158" unicode="&#xe158;" 
 />
    <glyph glyph-name="uniE159" unicode="&#xe159;" 
 />
    <glyph glyph-name="_298" horiz-adv-x="0" 
 />
    <glyph glyph-name="_299" horiz-adv-x="0" 
 />
    <glyph glyph-name="_300" horiz-adv-x="0" 
 />
    <glyph glyph-name="_301" 
 />
    <glyph glyph-name="_302" horiz-adv-x="0" 
 />
    <glyph glyph-name="_303" horiz-adv-x="0" 
 />
    <glyph glyph-name="uniE160" unicode="&#xe160;" 
d="M59 355v266q0 146 104 250t250 104q325 -5 352 -12l-165 -165h-275q-36 0 -62.5 -26t-26.5 -63v-443q0 -36 26.5 -62.5t62.5 -26.5h443q36 0 62.5 26.5t26.5 62.5v111l177 177v-199q0 -147 -104 -251t-251 -104h-266q-146 0 -250 104t-104 251zM445 302l143 45l365 365
l-101 100l-359 -359zM941 900l100 -100l100 100l-19 75l-81 25z" />
    <glyph glyph-name="uniE161" unicode="&#xe161;" 
d="M67 364v272q0 150 107 257t257 107h237l2 -73q-121 -29 -199 -109h-131q-38 0 -64.5 -26.5t-26.5 -64.5v-454q0 -38 26.5 -64.5t64.5 -26.5h454q37 0 64 26.5t27 64.5l182 139v-48q0 -150 -107 -257t-257 -107h-272q-150 0 -257 107t-107 257zM451 476q28 35 74.5 58.5
t93.5 32t90 13t70 3.5l27 -1v-190l327 294l-326 289v-196q-7 0 -17.5 -1t-43.5 -7t-63.5 -16.5t-69.5 -34t-69.5 -54t-56.5 -80t-36 -110.5z" />
    <glyph glyph-name="uniE162" unicode="&#xe162;" 
d="M58 364v272q0 150 107 257t257 107h273q55 0 115 -21l-162 -161h-317q-37 0 -64 -26.5t-27 -64.5v-454q0 -38 27 -64.5t64 -26.5h455q37 0 63.5 26.5t26.5 64.5v62l182 182v-153q0 -150 -106.5 -257t-256.5 -107h-273q-150 0 -257 107t-107 257zM369 575l257 -259
l516 516l-125 124l-391 -391l-132 133z" />
    <glyph glyph-name="uniE163" unicode="&#xe163;" 
d="M9 364v272h273v182l363 -318l-363 -318v182h-273zM464 0v182h454q38 0 64.5 26.5t26.5 64.5v454q0 38 -26.5 64.5t-64.5 26.5h-454v182h363q150 0 257 -107t107 -257v-272q0 -150 -107 -257t-257 -107h-363z" />
    <glyph glyph-name="uniE164" unicode="&#xe164;" 
d="M9 364q0 -150 107 -257t257 -107h272q43 0 91 14v168h-454q-38 0 -64.5 26.5t-26.5 64.5v454q0 38 26.5 64.5t64.5 26.5h454v168q-12 4 -103 7t-176 5l-84 2q-150 0 -257 -107t-107 -257v-272zM555 364v272h272v182l364 -318l-364 -318v182h-272z" />
    <glyph glyph-name="uniE165" unicode="&#xe165;" 
d="M100 333q0 -137 98 -235t235 -98h250q136 0 235 98t99 235v82l-65 61l-102 -103v-123q0 -34 -24.5 -58.5t-58.5 -24.5h-417q-34 0 -58.5 24.5t-24.5 58.5v417q0 34 24.5 58.5t58.5 24.5h130l98 102l-61 65h-84q-137 0 -235 -98t-98 -236v-250zM513 591l295 285l-125 124
h417v-417l-124 125l-285 -295z" />
    <glyph glyph-name="uniE166" unicode="&#xe166;" 
 />
    <glyph glyph-name="uniE167" unicode="&#xe167;" 
 />
    <glyph glyph-name="uniE168" unicode="&#xe168;" 
 />
    <glyph glyph-name="uniE169" unicode="&#xe169;" 
 />
    <glyph glyph-name="_314" horiz-adv-x="0" 
 />
    <glyph glyph-name="_315" horiz-adv-x="0" 
 />
    <glyph glyph-name="_316" horiz-adv-x="0" 
 />
    <glyph glyph-name="_317" horiz-adv-x="0" 
 />
    <glyph glyph-name="_318" horiz-adv-x="0" 
 />
    <glyph glyph-name="_319" horiz-adv-x="0" 
 />
    <glyph glyph-name="uniE170" unicode="&#xe170;" 
d="M100 -45v250q0 10 6.5 16.5t16.5 6.5h952q10 0 17.5 -7t7.5 -16v-250h-1000zM191 682l404 -454l410 454h-269v364h-272v-364h-273zM918 91h91v46h-91v-46z" />
    <glyph glyph-name="uniE171" unicode="&#xe171;" 
d="M100 -45v250q0 10 6.5 16.5t16.5 6.5h952q10 0 17.5 -7t7.5 -16v-250h-1000zM191 591h273v-272h272v272h269l-405 455zM918 91h91v46h-91v-46z" />
    <glyph glyph-name="uniE172" unicode="&#xe172;" 
d="M100 -23v250q0 10 6.5 16.5t16.5 6.5h952q10 0 17.5 -7t7.5 -16v-250h-1000zM191 618l277 -277l542 541l-140 141l-402 -402l-136 138zM918 113h91v46h-91v-46z" />
    <glyph glyph-name="uniE173" unicode="&#xe173;" 
d="M100 -45v250q0 10 6.5 16.5t16.5 6.5h952q10 0 17.5 -7t7.5 -16v-250h-1000zM191 853l88 -89l193 194l-88 88zM282 319l633 1l3 635l-227 -217l-136 135l-192 -192l135 -136zM918 91h91v46h-91v-46z" />
    <glyph glyph-name="uniE174" unicode="&#xe174;" 
d="M100 -45v250q0 10 6.5 16.5t16.5 6.5h952q10 0 17.5 -7t7.5 -16v-250h-1000zM282 511l193 -192l89 88l-194 193zM373 1046l217 -227l-135 -136l192 -193l136 135l226 -215l-1 633zM918 91h91v46h-91v-46z" />
    <glyph glyph-name="uniE175" unicode="&#xe175;" 
d="M100 83v84q0 34 24.5 58.5t58.5 24.5h834q34 0 58.5 -24.5t24.5 -58.5v-84q0 -34 -24.5 -58.5t-58.5 -24.5h-834q-34 0 -58.5 24.5t-24.5 58.5zM126 333l143 616q4 19 19 35t32 16h560q16 0 31.5 -18.5t19.5 -38.5l143 -610h-948zM767 83h83v84h-83v-84zM933 83h84v84
h-84v-84z" />
    <glyph glyph-name="uniE176" unicode="&#xe176;" 
d="M100 45v910q0 18 13 31.5t32 13.5h228v-273h454v273h91l182 -182v-773q0 -19 -13.5 -32t-31.5 -13h-137v364h-636v-364h-137q-19 0 -32 13t-13 32zM645 818h91v182h-91v-182z" />
    <glyph glyph-name="uniE177" unicode="&#xe177;" 
d="M29 77v879q0 18 13 31t31 13h221v-263h441v263h88l177 -175v-192l-244 -242l-106 106l-111 -112h-333v-352h-133q-18 0 -31 13t-13 31zM539 214l108 108l106 -105l310 309l108 -108l-417 -418zM556 824h88v176h-88v-176z" />
    <glyph glyph-name="uniE178" unicode="&#xe178;" 
d="M29 77v879q0 18 13 31t31 13h221v-264h441v264h88l177 -176v-236l-91 -91l-150 150l-263 -262h-290v-352h-133q-18 0 -31 12.5t-13 31.5zM647 106l150 143l-150 142l112 106l150 -142l150 142l112 -107l-150 -141l150 -143l-112 -106l-150 142l-150 -142zM556 824h88v176
h-88v-176z" />
    <glyph glyph-name="uniE179" unicode="&#xe179;" 
d="M29 77v879q0 18 13 31t31 13h221v-264h441v264h88l177 -176v-210h-288l1 -229h-507v-352h-133q-18 0 -31 12.5t-13 31.5zM671 250l250 -250l250 250h-167v250h-166v-250h-167zM556 824h88v176h-88v-176z" />
    <glyph glyph-name="uniE17A" unicode="&#xe17a;" 
d="M29 77v879q0 18 13 31t31 13h221v-264h441v264h88l177 -176v-234l-76 98l-304 -303h-414v-352h-133q-18 0 -31 12.5t-13 31.5zM671 250h167v-250h166v250h167l-250 250zM556 824h88v176h-88v-176z" />
    <glyph glyph-name="_331" horiz-adv-x="0" 
 />
    <glyph glyph-name="_332" horiz-adv-x="0" 
 />
    <glyph glyph-name="_333" horiz-adv-x="0" 
 />
    <glyph glyph-name="_334" horiz-adv-x="0" 
 />
    <glyph glyph-name="_335" horiz-adv-x="0" 
 />
    <glyph glyph-name="uniE180" unicode="&#xe180;" 
d="M9 273v454q0 113 80 193t193 80h636q113 0 193 -80t80 -193v-454q0 -113 -80 -193t-193 -80h-636q-113 0 -193 80t-80 193zM191 182h818v636h-818v-636zM282 273h273v272h-182v91h182v91h-273v-272h182v-91h-182v-91zM645 273h182v91h91v272h-91v91h-182v-454zM736 364
v272h91v-272h-91z" />
    <glyph glyph-name="uniE181" unicode="&#xe181;" 
d="M9 273v454q0 113 80 193t193 80h636q113 0 193 -80t80 -193v-454q0 -113 -80 -193t-193 -80h-636q-113 0 -193 80t-80 193zM191 182h818v636h-818v-636zM282 273h91v182h91v-182h91v454h-91v-182h-91v182h-91v-454zM645 273h182v91h91v272h-91v91h-182v-454zM736 364v272
h91v-272h-91z" />
    <glyph glyph-name="uniE182" unicode="&#xe182;" 
d="M9 273v454q0 113 80 193t193 80h636q113 0 193 -80t80 -193v-454q0 -113 -80 -193t-193 -80h-636q-113 0 -193 80t-80 193zM191 182h818v636h-818v-636zM282 273h273v91h-182v272h182v91h-273v-454zM645 273h273v91h-182v272h182v91h-273v-454z" />
    <glyph glyph-name="uniE183" unicode="&#xe183;" 
d="M9 273v454q0 113 80 193t193 80h636q113 0 193 -80t80 -193v-454q0 -113 -80 -193t-193 -80h-636q-113 0 -193 80t-80 193zM191 182h818v636h-818v-636zM282 500l273 -136v272zM645 364l273 136l-273 136v-272z" />
    <glyph glyph-name="uniE184" unicode="&#xe184;" 
d="M9 273v454q0 113 80 193t193 80h636q113 0 193 -80t80 -193v-454q0 -113 -80 -193t-193 -80h-636q-113 0 -193 80t-80 193zM191 182h818v636h-818v-636zM282 273v454h636v-454h-636zM373 364h118q37 0 61.5 38t24.5 97t-26 98t-60 39h-118v-272zM623 499q0 -59 24.5 -97
t61.5 -38h118v272h-118q-34 0 -60 -39t-26 -98z" />
    <glyph glyph-name="uniE185" unicode="&#xe185;" 
d="M9 273v454q0 113 80 193t193 80h636q113 0 193 -80t80 -193v-454q0 -113 -80 -193t-193 -80h-636q-113 0 -193 80t-80 193zM191 182h818v636h-818v-636zM282 273h273v272h-182v91h182v91h-273v-272h182v-91h-182v-91zM646 273h91v91h-91v-91zM736 636h91v-363h91v454
h-182v-91z" />
    <glyph glyph-name="uniE186" unicode="&#xe186;" 
d="M9 273v454q0 113 80 193t193 80h636q113 0 193 -80t80 -193v-454q0 -113 -80 -193t-193 -80h-636q-113 0 -193 80t-80 193zM191 182h818v636h-818v-636zM282 273h273v363h-182v91h-91v-454zM374 364v181h91v-181h-91zM646 273h91v91h-91v-91zM736 636h91v-363h91v454
h-182v-91z" />
    <glyph glyph-name="uniE187" unicode="&#xe187;" 
d="M9 273v454q0 113 80 193t193 80h636q113 0 193 -80t80 -193v-454q0 -113 -80 -193t-193 -80h-636q-113 0 -193 80t-80 193zM191 182h818v636h-818v-636zM282 636v91h273v-272h-90v-91h-91v91h90v181h-182zM283 273v91h91v-91h-91zM646 273v91h91v-91h-91zM736 636v91h182
v-454h-91v363h-91z" />
    <glyph glyph-name="uniE188" unicode="&#xe188;" 
 />
    <glyph glyph-name="uniE189" unicode="&#xe189;" 
 />
    <glyph glyph-name="_346" horiz-adv-x="0" 
 />
    <glyph glyph-name="_347" horiz-adv-x="0" 
 />
    <glyph glyph-name="_348" horiz-adv-x="0" 
 />
    <glyph glyph-name="_349" horiz-adv-x="0" 
 />
    <glyph glyph-name="_350" horiz-adv-x="0" 
 />
    <glyph glyph-name="_351" 
 />
    <glyph glyph-name="uniE190" unicode="&#xe190;" 
d="M524 1000h272q40 0 60 -50l53 -91l68 38h5q4 0 4 -5l-120 -206h-239l-4 3v3q13 12 69 41v3q-129 225 -140 239q-32 16 -32 18v4zM443 987h17q76 0 113 -88q21 -33 21 -40q-122 -216 -131 -228h-3q-207 118 -210 124v1q108 193 120 199q30 32 73 32zM590 972v-2l139 -244
l-15 -10v-2h139l65 119l-20 -10q-78 136 -88 145l-14 4h-206zM287 763l167 -95l109 192q-43 99 -95 99h-20q-57 0 -88 -70zM996 705q12 -12 115 -199l3 -29v-14q0 -53 -55 -98q-16 -13 -41 -13h-100q-9 8 -132 226v4zM823 572l108 -192h91q37 0 62 71l2 17q0 39 -34 87
l-66 111q-156 -88 -163 -94zM328 651q6 0 86 -147q36 -55 36 -64l-3 -4h-4l-69 40q-124 -213 -135 -235l-1 -15l3 -28l-5 -3h-2q-15 18 -134 226q-14 18 -14 38v5q0 20 58 111l15 27h-2l-69 41v3l4 4zM180 624v-4l12 -8h2v-2q0 -5 -80 -142v-7q1 -17 108 -193l138 241l21 -5
v2l-65 118h-136zM753 417h4l3 -3v-80h256q29 0 54 23h1l4 -3v-2q-4 -14 -139 -245q-17 -20 -41 -20h-135v-84l-3 -3h-5q-119 200 -119 208v3zM577 334l6 -5v-238l-4 -4h-205q-80 0 -113 91l-5 27v9q0 35 61 120h260zM730 326l-64 -119l64 -116h4v5q0 19 6 19h158q16 0 49 67
l71 124h-278q-6 1 -6 14v6h-4zM332 306q-42 -67 -46 -92v-7q0 -59 61 -88l22 -4h185v191h-222z" />
    <glyph glyph-name="uniE191" unicode="&#xe191;" 
d="M526 1000h269q40 0 62 -58l51 -87l69 38h4v-2q-109 -190 -120 -205h-236v4q67 37 71 43l-137 246q-24 18 -33 18v3zM455 993q73 0 102 -63l34 -60l-133 -230q-184 107 -202 120q102 182 117 201q33 32 82 32zM998 698q114 -193 114 -210l2 -27q0 -70 -67 -111
q-10 -6 -38 -6h-86q-9 11 -129 229q16 17 154 94zM326 649q117 -201 118 -209l-77 42q-132 -228 -135 -239l-1 -28l3 -21h-3l-139 242l-6 22q3 21 58 110q18 28 18 36l-69 40v2h157zM752 405h1v-80h273q22 0 43 18h2q0 -6 -139 -247q-17 -15 -38 -15h-141v-81h-3l-116 203z
M569 325l4 -5v-236l-4 -3h-199q-80 0 -113 88l-3 32q0 35 58 124h257z" />
    <glyph glyph-name="uniE192" unicode="&#xe192;" 
d="M123 124q-30 52 -30 106q0 49 25 101l56 99l-41 25l156 72l17 -174l-41 24l-66 -117q-5 -14 -5 -27q0 -24 16 -46q26 -30 106 -30h270v-108h-323q-50 0 -87 23q-31 18 -53 52zM1090 157q-57 -101 -174 -108h-111v-49l-140 102l140 103v-48h132q39 7 56 44q4 11 4 24
q0 35 -33 85l-134 241l90 54l162 -286q25 -45 25 -90q0 -36 -17 -72zM579 1000q111 -1 176 -100l55 -100l44 25l-18 -175l-157 72l41 24l-66 118q-23 27 -57 27h-10q-41 -6 -77 -80l-135 -240l-91 54l161 287q25 44 63 66q31 19 71 22z" />
    <glyph glyph-name="uniE193" unicode="&#xe193;" 
d="M591 1000h18q264 0 427 -244q64 -116 64 -254v-4q0 -290 -268 -447q-109 -51 -230 -51h-3q-289 0 -443 261q-56 112 -56 221v35q0 235 211 396q127 87 280 87zM530 903v-3q24 0 59 -72l81 -137v-3q-17 -14 -57 -35v-1h187q7 5 95 165h-2l-55 -29q-53 91 -65 106
q-14 9 -32 9h-211zM319 708q162 -92 168 -92q2 10 102 182q-45 84 -59 84q-19 12 -53 12q-64 0 -99 -81q-52 -84 -60 -105h1zM745 561v-2l103 -180h79q66 0 83 93q0 31 -68 136l-28 51q-9 0 -169 -98zM187 619l54 -35q-51 -81 -58 -115q0 -15 93 -168l19 -40h2q0 44 18 61
l95 166h6l51 -30l-93 161h-187zM712 431l-91 -168q4 -2 91 -160h1v61l5 4h114q25 0 66 85l70 118v2h-2q-15 -10 -38 -10h-210l-5 4v64h-1zM357 363q-44 -70 -44 -96v-9q0 -60 71 -88l18 -2h167v195h-212z" />
    <glyph glyph-name="uniE194" unicode="&#xe194;" 
d="M602 1000q271 0 430 -241q68 -118 68 -261q0 -283 -253 -438q-110 -60 -249 -60q-280 0 -435 248q-63 109 -63 255q0 284 262 440q113 57 240 57zM141 499q0 -260 230 -401q103 -57 213 -57h31q235 0 385 224q59 108 59 237q0 257 -236 403q-104 54 -224 54
q-254 0 -399 -226q-59 -103 -59 -234zM533 878h208q36 0 52 -47l39 -65l54 29v-2q-73 -136 -91 -160h-182v3l51 34q-97 170 -115 196l-16 8v4zM480 874q60 0 81 -47l30 -57l-103 -173h-2q-151 86 -163 96q80 142 97 160q30 21 60 21zM901 643q92 -150 92 -173v-16
q-15 -86 -86 -86h-68l-103 178zM196 604h184l97 -163l-3 -2h-1l-53 34h-2q-110 -186 -115 -200v-18q-8 8 -111 190l-2 12q0 19 58 113l-52 33v1zM707 418h4v-63h218q14 0 29 13v-4l-115 -195l-15 -6h-113l-4 -4v-57h-4l-90 159zM367 355h199l4 -3v-185l-4 -4h-163
q-55 0 -80 69l-5 29q1 33 49 94z" />
    <glyph glyph-name="uniE195" unicode="&#xe195;" 
d="M109 346l981 654v-900l-396 227l-259 -327v346h-326zM501 175l560 782l-560 -593v-189z" />
    <glyph glyph-name="uniE196" unicode="&#xe196;" 
d="M109 0v117l176 157q-7 44 -10.5 68.5t-4.5 77t7.5 92.5t31.5 93t61 102t81 83.5t84.5 55.5t104.5 39.5t119 30.5t150.5 35.5t180.5 48.5q0 -155 -18 -281t-48.5 -211t-73 -148.5t-89 -98.5t-100 -56t-102.5 -24.5t-99.5 -1t-88 10.5t-71.5 14t-46 6l-81 -45zM304 263.5
q16 -5.5 70 62.5q45 54 301 192q57 31 96.5 56.5t83.5 64.5t81 91.5t71 120.5q18 41 19.5 49.5t-4.5 15.5q-6 4 -14 4t-21.5 -12t-27.5 -32q-29 -42 -93 -89t-114 -73l-50 -26q-302 -161 -375 -328q-39 -91 -23 -96.5z" />
    <glyph glyph-name="uniE197" unicode="&#xe197;" 
d="M509 1050q102 0 185.5 -55t124.5 -145q41 13 83 13q112 0 190.5 -80t78.5 -191.5t-78.5 -192t-190.5 -80.5h-118v232q0 19 -13.5 32.5t-32.5 13.5h-278q-20 0 -33.5 -13.5t-13.5 -32.5v-232h-205q-74 0 -126 53.5t-52 126.5q0 64 40 113.5t100 62.5q-2 18 -2 34
q0 93 45.5 171.5t124 124t171.5 45.5zM529 505h139q9 0 16 -7t7 -17v-254h127q20 0 24.5 -10.5t-7.5 -25.5l-207 -226q-12 -15 -29.5 -15t-29.5 15l-207 226q-12 15 -7 25.5t24 10.5h127v254q0 10 7 17t16 7z" />
    <glyph glyph-name="uniE198" unicode="&#xe198;" 
d="M30 500q0 -74 52.5 -127t125.5 -53h7l383 383l373 -373q87 24 143 97t56 165q0 111 -78.5 191t-189.5 80q-43 0 -84 -13q-40 90 -124 145t-186 55q-140 0 -240 -99.5t-100 -240.5q0 -24 2 -35q-61 -13 -100.5 -62.5t-39.5 -112.5zM321 228l277 277l278 -277h-185v-278
h-185v278h-185z" />
    <glyph glyph-name="uniE199" unicode="&#xe199;" 
d="M100 134h400v-155l-75 -45h350l-75 45v155h400l-270 300h170l-270 300h170l-300 333l-300 -333h170l-270 -300h170z" />
    <glyph glyph-name="_362" 
d="M121 611q0 -53 28.5 -97t75.5 -65q-4 -16 -4 -38q0 -74 52.5 -126.5t126.5 -52.5q56 0 100 30v-306l-75 -45h350l-75 45v306q46 -30 100 -30q74 0 126.5 52.5t52.5 126.5q0 24 -9 55q50 32 79.5 83t29.5 112q0 90 -61.5 155.5t-150.5 71.5q-26 89 -99.5 145.5
t-167.5 56.5q-116 0 -197.5 -81.5t-81.5 -197.5q0 -4 1 -11.5t1 -11.5q-14 2 -23 2q-74 0 -126.5 -52.5t-52.5 -126.5z" />
    <glyph glyph-name="uniE19B" unicode="&#xe19b;" 
d="M275 438q7 -16 27 -16h256q-132 -371 -136 -388q-4 -18 4 -27l7 -7h8q12 0 22 13q9 11 232.5 272.5t224.5 261.5q12 16 4 30q-7 15 -26 15l-255 -1q0 3 65.5 185.5t67.5 192.5q1 13 -4 23l-8 8h-8q-12 0 -21 -14q-3 -5 -83 -94t-194 -217.5t-177 -201.5q-14 -16 -6 -35z
" />
    <glyph glyph-name="uniE19C" unicode="&#xe19c;" 
d="M201 318.5q0 -26.5 4 -50.5q7 -45 35.5 -96t84.5 -87q25 -17 51.5 -13t50 19t46 39.5t38.5 49.5t28 49q26 53 31.5 148.5t-10.5 126.5q63 -64 98 -132t21 -148q-4 -27 -16.5 -56t-30.5 -65q-8 -15 -11.5 -23t-9.5 -21t-7 -19t-2.5 -15.5t2 -12.5t9 -7.5t15.5 -4t24.5 2
t33.5 6.5q46 16 73.5 27.5t70.5 36t70 51.5t52.5 71t37.5 98q31 138 -35.5 274.5t-198.5 224.5q18 -35 35 -104q31 -128 -26 -124q-12 2 -26 7q-64 27 -97.5 81t-35.5 141.5t39 206.5q-10 -6 -27 -18.5t-58.5 -53.5t-71.5 -85t-48.5 -111t-5.5 -134q1 -10 6 -33.5t6.5 -34.5
t4.5 -32t3 -31.5t-0.5 -27t-5 -25.5t-11 -19t-17 -16.5t-24.5 -9.5q-31 -8 -54.5 10.5t-32.5 49.5t-12 65.5t9 60.5q-42 -37 -67.5 -81.5t-31.5 -86.5t-6 -68.5z" />
    <glyph glyph-name="_365" 
 />
    <glyph glyph-name="_366" 
 />
    <glyph glyph-name="_367" 
 />
    <glyph glyph-name="uniE200" unicode="&#xe200;" 
d="M54 91v182h1091v-182q0 -37 -27 -64t-64 -27h-910q-37 0 -63.5 27t-26.5 64zM54 364v363q0 38 26.5 64.5t63.5 26.5h273v91q0 37 27 64t64 27h182q37 0 64 -27t27 -64v-91h273q37 0 64 -26.5t27 -64.5v-363h-455v91h-182v-91h-454zM508 818h182v91h-182v-91z" />
    <glyph glyph-name="uniE201" unicode="&#xe201;" 
d="M100 667h83v-167h334v250h166v-250h334v167h83v83h-92v5.5t-1 12.5t-3 15l-28 143q-9 32 -34.5 52t-58.5 20q-26 0 -50 -14l-200 -120q-18 -11 -33 -29q-16 20 -33 30l-199 120q-27 15 -51 15q-33 0 -58.5 -19t-33.5 -51l-29 -147q-2 -7 -2.5 -15.5t-0.5 -12.5v-5h-93
v-83zM183 0h334v333h-334v-333zM267 750q-3 0 11.5 40t29.5 80l15 39l178 -159h-234zM683 0v333h334v-333h-334zM709 750l169 164q4 -10 9.5 -27t19 -53t21 -60t5.5 -24h-224z" />
    <glyph glyph-name="uniE202" unicode="&#xe202;" 
d="M50 133q0 -19 13.5 -32t32.5 -13h1008q19 0 32.5 13t13.5 32v505h-1100v-505zM50 729h1100v138q0 19 -13.5 32.5t-32.5 13.5h-1008q-19 0 -32.5 -13.5t-13.5 -32.5v-138zM142 179v184h366v-184h-366z" />
    <glyph glyph-name="uniE203" unicode="&#xe203;" 
d="M111 783q-4 20 8 35t33 15h746l32 135q4 15 15.5 23.5t25.5 8.5h78q17 0 29.5 -12t12.5 -29.5t-12.5 -29.5t-29.5 -12h-45l-167 -801q-2 -3 -5.5 -8.5t-16 -15t-27.5 -9.5h-25v-41q0 -17 -12.5 -29.5t-30 -12.5t-29.5 12.5t-12 29.5v41h-250v-41q0 -17 -12 -29.5
t-29.5 -12.5t-29.5 12.5t-12 29.5v41h-42q-17 0 -29 12.5t-12 29.5q0 18 12 30t29 12h446l40 166h-527q-27 0 -46 17.5t-23 36.5z" />
    <glyph glyph-name="_356" horiz-adv-x="0" 
 />
    <glyph glyph-name="_357" horiz-adv-x="0" 
 />
    <glyph glyph-name="_358" horiz-adv-x="0" 
 />
    <glyph glyph-name="_359" horiz-adv-x="0" 
 />
    <glyph glyph-name="_360" horiz-adv-x="0" 
 />
    <glyph glyph-name="_361" horiz-adv-x="0" 
 />
  </font>
</defs>
</svg>
